<?xml version="1.0"?>
<svg xmlns="http://www.w3.org/2000/svg" viewBox="0 0 50 50">
    <path style="line-height:normal;text-indent:0;text-align:start;text-decoration-line:none;text-decoration-style:solid;text-decoration-color:#000;text-transform:none;block-progression:tb;isolation:auto;mix-blend-mode:normal" d="M 0 8 L 0 42 L 27 42 A 1.0001 1.0001 0 1 0 27 40 L 2 40 L 2 37.765625 L 16.015625 26.855469 C 17.080389 27.758804 19.242903 29.61417 19.548828 29.859375 C 19.550828 29.861075 19.552588 29.861581 19.554688 29.863281 C 21.158399 31.235082 22.879198 31.599609 24 31.599609 C 25.120802 31.599609 26.841601 31.235082 28.445312 29.863281 C 28.749559 29.619514 30.911548 27.763032 31.974609 26.861328 L 34.875 29.181641 A 1.0004882 1.0004882 0 1 0 36.125 27.619141 L 33.527344 25.541016 C 35.370955 23.970784 36.283938 23.209271 38.5625 21.259766 C 42.359199 18.011363 44.84753 15.875337 46 14.886719 L 46 29 A 1.0001 1.0001 0 1 0 48 29 L 48 8 L 0 8 z M 2 10 L 46 10 L 46 12.253906 C 45.766784 12.453999 41.721851 15.924208 37.261719 19.740234 C 32.674883 23.664666 27.817856 27.804699 27.175781 28.318359 L 27.162109 28.330078 L 27.148438 28.339844 C 25.953839 29.363718 24.677778 29.599609 24 29.599609 C 23.322222 29.599609 22.046118 29.363747 20.851562 28.339844 L 20.837891 28.330078 L 20.824219 28.318359 C 20.182141 27.804734 15.325117 23.664666 10.738281 19.740234 C 6.2781486 15.924208 2.2332162 12.453999 2 12.253906 L 2 10 z M 2 14.886719 C 3.1524701 15.875337 5.6408005 18.011363 9.4375 21.259766 C 11.710291 23.204333 12.618852 23.963691 14.458984 25.53125 L 2 35.232422 L 2 14.886719 z M 40 30 C 34.489 30 30 34.489 30 40 C 30 45.511 34.489 50 40 50 C 45.511 50 50 45.511 50 40 C 50 34.489 45.511 30 40 30 z M 40 32 C 44.43 32 48 35.57 48 40 C 48 44.43 44.43 48 40 48 C 35.57 48 32 44.43 32 40 C 32 35.57 35.57 32 40 32 z M 44.25 35.34375 L 38.84375 41.625 L 35.59375 39.1875 L 34.40625 40.8125 L 38.40625 43.8125 L 39.15625 44.375 L 39.75 43.65625 L 45.75 36.65625 L 44.25 35.34375 z" font-weight="400" font-family="sans-serif" white-space="normal" overflow="visible"/>
</svg>
