<svg height="96" width="96" xmlns="http://www.w3.org/2000/svg">
  <path d="M44 12v62.344L22.543 52.888a4 4 0 1 0-5.656 5.657l28.284 28.283c.186.186.391.352.609.498.101.067.21.114.315.172.124.066.242.142.373.195.135.057.275.089.415.129.111.033.216.076.331.099.26.052.523.079.786.079l.009-.001c.259-.001.519-.027.774-.078.12-.024.231-.069.348-.104.133-.039.268-.069.397-.123.139-.058.265-.136.396-.208.098-.054.198-.097.292-.159a3.94 3.94 0 0 0 .614-.501l28.281-28.282a4 4 0 0 0-5.656-5.657L52 74.343V12a4 4 0 0 0-8 0z"/>
</svg>
