<svg height="96" width="96" xmlns="http://www.w3.org/2000/svg">
  <path d="M52 84V21.656l21.457 21.456a4 4 0 1 0 5.656-5.657L50.829 9.172a4.037 4.037 0 0 0-.609-.498c-.101-.067-.21-.114-.315-.172-.124-.066-.242-.142-.373-.195-.135-.057-.275-.089-.415-.129-.111-.033-.216-.076-.331-.099A3.99 3.99 0 0 0 48.001 8l-.009.001a4.032 4.032 0 0 0-.774.078c-.12.024-.231.069-.349.104-.133.039-.268.069-.397.123-.139.058-.265.136-.396.208-.098.054-.198.097-.292.159a3.94 3.94 0 0 0-.614.501L16.889 37.456a4.001 4.001 0 0 0 5.657 5.657L44 21.657V84a4 4 0 0 0 8 0z"/>
</svg>
