<svg xmlns="http://www.w3.org/2000/svg" viewBox="0 0 51 51">
  <path d="M48.9 17.7c-.2-.3-.6-.5-.9-.5h-7.6c-.6 0-1.1.5-1.1 1.1 0 .6.5 1.1 1.1 1.1h5.8l-6.5 14.2H13.3L8.7 10c-.1-.5-.6-.9-1.1-.9H3.1c-.6 0-1.1.5-1.1 1.1s.5 1.1 1.1 1.1h3.6l4.6 23.6c.1.5.6.9 1.1.9h28.1c.4 0 .8-.3 1-.7L49 18.7c.1-.3.1-.7-.1-1z"/>
  <path d="M16.5 26h20.2c.6 0 1.1-.5 1.1-1.1 0-4.8-3.1-8.9-7.3-10.5 1.2-1.1 1.9-2.6 1.9-4.3 0-3.2-2.6-5.9-5.9-5.9-3.2 0-5.9 2.6-5.9 5.9 0 1.7.7 3.3 1.9 4.3-4.3 1.6-7.3 5.7-7.3 10.5.2.6.7 1.1 1.3 1.1zM23 10.1c0-2 1.6-3.6 3.6-3.6s3.6 1.6 3.6 3.6-1.6 3.6-3.6 3.6S23 12 23 10.1zm3.6 5.8c4.6 0 8.4 3.4 8.9 7.9H17.7c.6-4.4 4.3-7.9 8.9-7.9zM16.3 38.1c-2.6 0-4.7 2.1-4.7 4.7s2.1 4.7 4.7 4.7 4.7-2.1 4.7-4.7c.1-2.6-2.1-4.7-4.7-4.7zm2.5 4.7c0 1.4-1.1 2.5-2.5 2.5-.7 0-1.3-.3-1.7-.7-.5-.5-.7-1.1-.7-1.7 0-1.4 1.1-2.5 2.5-2.5 1.3-.1 2.4 1 2.4 2.4zm16-4.7c-2.6 0-4.7 2.1-4.7 4.7s2.1 4.7 4.7 4.7 4.7-2.1 4.7-4.7-2.1-4.7-4.7-4.7zm0 7.1c-1.4 0-2.5-1.1-2.5-2.5s1.1-2.5 2.5-2.5 2.5 1.1 2.5 2.5c-.1 1.4-1.2 2.5-2.5 2.5z"/>
</svg>
