<svg xmlns="http://www.w3.org/2000/svg" x="0" y="0" viewBox="0 0 23 23">
  <path d="M22.4 6.3c0-.9-.7-1.6-1.6-1.6h-4.9v-.3c0-1.9-1.6-3.5-3.5-3.5h-1.9C8.7 1 7.1 2.5 7.1 4.4v.2H2.2c-.9 0-1.6.7-1.6 1.6v4.1c0 .9.4 1.8.9 2.4v7.4c0 .9.7 1.6 1.6 1.6h16.7c.9 0 1.6-.7 1.6-1.6v-7.4c.6-.6.9-1.5.9-2.4v-4zM8.5 4.4c0-1.2.9-2.1 2.1-2.1h1.9c1.2 0 2.1.9 2.1 2.1v.2h-6v-.2zM2 6.3c0-.1.1-.2.2-.2h18.6c.1 0 .2.1.2.2v4.2c0 1-.7 1.9-1.8 2.2L14 14v-1.1c0-.4-.3-.7-.7-.7H9.6c-.4 0-.7.3-.7.7v1l-5.2-1.3c-1-.2-1.8-1.1-1.8-2.2V6.3zm10.7 7.2v1.4h-2.3v-1.4h2.3zm7.2 7H3.1c-.1 0-.2-.1-.2-.2v-6.4c.2.1.3.1.5.2l5.5 1.3v.3c0 .4.3.7.7.7h3.7c.4 0 .7-.3.7-.7v-.3.1l5.5-1.4c.2 0 .4-.1.5-.2v6.4c.1.1 0 .2-.1.2z"/>
</svg>
