<svg xmlns="http://www.w3.org/2000/svg" viewBox="0 0 512 512"><path d="M477.42 340.613l-1.419-.467-.003-.001-116.787-38.448V163.76c0-2.95-1.26-5.598-3.261-7.46-.032-.033-.054-.065-.091-.098L265.94 74.728V44.102h14.021c5.633 0 10.199-4.566 10.199-10.199s-4.566-10.199-10.199-10.199H265.94V10.199C265.941 4.566 261.375 0 255.742 0s-10.199 4.566-10.199 10.199v13.505h-14.02c-5.633 0-10.199 4.566-10.199 10.199s4.566 10.199 10.199 10.199h14.02v30.632l-89.721 81.475c-.022.02-.031.041-.05.061a10.16 10.16 0 0 0-3.292 7.489v137.942L36 340.143l-.007.002-1.419.468a10.2 10.2 0 0 0-7.004 9.686v151.5c0 5.633 4.566 10.199 10.199 10.199h436.464c5.633 0 10.199-4.566 10.199-10.199v-151.5a10.2 10.2 0 0 0-7.012-9.686zM152.479 491.602H47.966v-131.57h104.512v131.57zm0-151.969h-49.846l49.846-16.45v16.45zM255.75 93.02l66.816 60.542H189.08l66.67-60.542zm41.763 398.582h-83.337v-50.933c0-22.61 15.866-41.005 35.368-41.005h12.601c19.502 0 35.368 18.395 35.368 41.005v50.933zm41.3 0h-20.901v-50.933c0-33.858-25.017-61.403-55.766-61.403h-12.601c-30.75 0-55.766 27.545-55.766 61.403v50.933h-20.901V173.96h165.936v317.642zm20.398-168.43l50.002 16.462h-50.002v-16.462zm104.822 168.43H359.211v-131.57h104.821v131.57z"/><path d="M255.742 214.367c-14.614 0-26.505 11.89-26.505 26.505V313.2c0 5.632 4.566 10.199 10.199 10.199h32.61c5.633 0 10.199-4.566 10.199-10.199v-72.328c.001-14.615-11.888-26.505-26.503-26.505zM261.848 303h-12.212v-62.128a6.113 6.113 0 0 1 6.106-6.106 6.113 6.113 0 0 1 6.105 6.106V303zM390.752 463.775h-2.061c-5.633 0-10.199 4.566-10.199 10.199s4.566 10.199 10.199 10.199h2.061c5.633 0 10.199-4.566 10.199-10.199.001-5.633-4.566-10.199-10.199-10.199zM446.404 463.775H422.7c-5.633 0-10.199 4.566-10.199 10.199s4.566 10.199 10.199 10.199h23.704c5.633 0 10.199-4.566 10.199-10.199.001-5.633-4.566-10.199-10.199-10.199z"/></svg>