<svg xmlns="http://www.w3.org/2000/svg" viewBox="0 0 51 51">
  <path d="M5.7 15.7c.4.3.9.4 1.4.4 1 0 1.9-.5 2.4-1.4.8-1.3.4-3-1-3.8-.6-.4-1.4-.5-2.1-.3-.7.2-1.3.6-1.7 1.3-.8 1.3-.4 3 1 3.8zm.9-2.7c.1-.1.2-.2.4-.3.2 0 .3 0 .5.1.3.2.4.6.2.9-.2.3-.6.4-.9.2-.3-.3-.4-.6-.2-.9zm.1 11.7c0-1.5-1.3-2.8-2.8-2.8-1.5 0-2.8 1.3-2.8 2.8 0 1.5 1.3 2.8 2.8 2.8 1.6 0 2.8-1.3 2.8-2.8zm-2.8.6c-.3 0-.6-.3-.6-.6s.3-.6.6-.6.6.3.6.6c.1.4-.2.6-.6.6zm1.8 8.4c-.6.4-1.1 1-1.3 1.7-.2.7-.1 1.5.3 2.1.5.9 1.4 1.4 2.4 1.4.5 0 1-.1 1.5-.4.6-.4 1.1-1 1.3-1.7.2-.7.1-1.5-.3-2.1-.9-1.3-2.6-1.7-3.9-1zm2 2.6c0 .2-.1.3-.3.4-.3.2-.7.1-.9-.2-.1-.1-.1-.3-.1-.5s.1-.3.3-.4c.1-.1.2-.1.3-.1.2 0 .4.1.5.3.2.2.2.3.2.5zm39.1-2.6c-1.3-.8-3-.3-3.8 1-.8 1.3-.3 3 1 3.8.4.3.9.4 1.4.4.2 0 .5 0 .7-.1.7-.2 1.3-.6 1.7-1.3.4-.6.5-1.4.3-2.1-.2-.7-.6-1.3-1.3-1.7zm-.9 2.8c-.1.1-.2.2-.4.3-.2 0-.3 0-.5-.1-.3-.2-.4-.6-.2-.9.2-.3.6-.4.9-.2.3.2.4.6.2.9zm-19.7 7.7c-1.5 0-2.8 1.3-2.8 2.8 0 1.5 1.3 2.8 2.8 2.8 1.5 0 2.8-1.3 2.8-2.8 0-1.5-1.2-2.8-2.8-2.8zm.7 2.8c0 .3-.3.6-.6.6s-.6-.3-.6-.6.3-.6.6-.6.6.2.6.6zm11.4-5.9c-.7-.2-1.5-.1-2.1.3-1.3.8-1.7 2.5-1 3.8.4.6 1 1.1 1.7 1.3.2.1.5.1.7.1.5 0 1-.1 1.4-.4.6-.4 1.1-1 1.3-1.7.2-.7.1-1.5-.3-2.2-.3-.6-.9-1-1.7-1.2zm0 2.9c0 .2-.1.3-.3.4-.1.1-.3.1-.5.1s-.3-.1-.4-.3c-.2-.3-.1-.7.2-.9.1-.1.2-.1.3-.1h.1c.2 0 .3.1.4.3.2.2.2.3.2.5zM14.8 8.4c.5 0 1-.1 1.4-.4 1.3-.8 1.8-2.5 1-3.8-.4-.6-1-1.1-1.7-1.3-.7-.2-1.5-.1-2.1.3-1.4.8-1.8 2.5-1 3.8.5.9 1.4 1.4 2.4 1.4zM14.5 5h.5c.2 0 .3.1.4.3.2.3.1.7-.2.9-.1.1-.3.1-.5.1s-.3-.1-.4-.3c-.2-.4-.1-.8.2-1zm1.7 36.4c-1.3-.8-3-.4-3.8 1-.8 1.3-.4 3 1 3.8.4.3.9.4 1.4.4 1 0 1.9-.5 2.4-1.4.8-1.2.4-3-1-3.8zm-.9 2.8c-.2.3-.6.4-.9.2-.3-.2-.4-.6-.2-.9.1-.2.3-.3.5-.3.1 0 .2 0 .3.1.4.2.5.6.3.9zM26.2 1.3c-.6 0-1.1.5-1.1 1.1s.5 1.1 1.1 1.1c12 0 21.8 9.8 21.8 21.8 0 .6.5 1.1 1.1 1.1s1.1-.5 1.1-1.1c0-13.2-10.8-24-24-24zm-1.1 26.5h14.3c.6 0 1.1-.5 1.1-1.1s-.5-1.1-1.1-1.1H26.2V13c0-.6-.5-1.1-1.1-1.1-.6 0-1.1.5-1.1 1.1v13.7c0 .6.5 1.1 1.1 1.1z"/>
</svg>
