<?xml version="1.0" encoding="utf-8"?>
<!-- Svg Vector Icons : http://www.onlinewebfonts.com/icon -->
<!DOCTYPE svg PUBLIC "-//W3C//DTD SVG 1.1//EN" "http://www.w3.org/Graphics/SVG/1.1/DTD/svg11.dtd">
<svg version="1.1" xmlns="http://www.w3.org/2000/svg" xmlns:xlink="http://www.w3.org/1999/xlink" x="0px" y="0px" viewBox="0 0 1000 1000" enable-background="new 0 0 1000 1000" xml:space="preserve">
<metadata> Svg Vector Icons : http://www.onlinewebfonts.com/icon </metadata>
<g><g transform="translate(0.000000,512.000000) scale(0.100000,-0.100000)"><path d="M3354.5,4992.2c-195.3-42.1-388.6-147.4-536.1-292.9c-229.7-225.9-317.8-499.7-302.5-938.1c7.7-212.5,17.2-260.4,72.7-409.7c82.3-222.1,210.6-415.5,381-572.5c243.1-225.9,501.6-314,786.9-269.9c202.9,32.5,354.2,113,534.1,283.3c202.9,195.3,329.3,396.3,405.9,650.9c91.9,302.5,26.8,830.9-132.1,1081.7c-82.3,130.2-273.8,296.7-428.9,373.3C3892.4,5017.1,3618.7,5049.6,3354.5,4992.2z M3863.7,4804.6c233.6-61.3,478.6-247,572.4-434.6c103.4-202.9,151.2-585.8,97.6-806c-63.2-269.9-202.9-499.7-417.4-679.7c-185.7-157-258.5-185.7-484.4-187.6c-178,0-201,3.8-317.8,61.3c-258.5,128.3-516.9,471-593.5,790.7c-55.5,224-13.4,641.4,80.4,827.1c93.8,183.8,298.7,344.6,532.2,419.3C3463.6,4837.1,3725.9,4841,3863.7,4804.6z"/><path d="M6111.4,4992.2c-181.9-38.3-384.8-145.5-524.6-275.7c-220.2-206.8-317.8-469.1-323.6-871.1c-3.8-277.6,24.9-402,151.3-660.5c76.6-153.2,116.8-208.7,264.2-356.1c204.9-206.8,342.7-283.3,557.1-317.8c294.8-45.9,549.5,40.2,794.5,266.1c306.3,283.3,459.5,624.1,459.5,1020.4c0,404-114.9,714.1-342.7,920.9C6871.4,4971.2,6486.6,5074.5,6111.4,4992.2z M6630.2,4800.8c158.9-47.9,281.4-116.8,396.3-224c176.1-168.5,235.5-310.2,271.9-650.9c26.8-243.1-1.9-407.8-113-639.5c-99.5-206.8-317.8-438.4-492-524.6c-212.5-105.3-505.4-95.7-681.6,21.1c-231.7,155.1-417.4,394.4-507.3,656.7c-47.9,137.9-53.6,183.8-53.6,386.7c0,373.3,68.9,566.7,264.2,750.5c126.4,116.8,247,185.7,394.4,225.9C6237.7,4839.1,6505.7,4837.1,6630.2,4800.8z"/><path d="M2425.9,2195.1c-166.6-36.4-271.9-113-338.9-243.1c-32.5-61.3-40.2-111-38.3-231.7c1.9-84.2-67-863.5-151.2-1730.7c-84.2-869.2-149.3-1598.6-143.6-1621.6c9.6-36.4,57.4-57.4,281.4-132.1c147.4-49.8,271.9-99.6,275.7-112.9c3.8-11.5,45.9-559,95.7-1217.6c47.9-658.6,95.7-1252.1,105.3-1319.1c23-157,88.1-252.7,216.3-317.8l97.6-47.9h785c495.9,0,813.7,7.7,859.6,21.1c99.6,26.8,214.4,135.9,250.8,233.6c21.1,55.5,59.4,474.8,128.3,1368.9l97.6,1288.5l-400.1,405.9C3871.4-776.2,3576.5-374.2,3431,60.4c-82.3,247-95.7,451.8-42.1,628c68.9,224,233.6,400.1,457.6,488.2c88.1,34.5,149.3,44,302.5,44c180,1.9,201-1.9,321.6-61.3c149.3-74.7,275.7-206.8,388.7-405.9c114.9-204.9,170.4-202.9,285.2,3.8c109.1,195.3,237.4,327.4,388.6,402.1c118.7,59.3,139.8,63.2,319.7,61.3c216.3,0,352.3-40.2,493.9-149.3c417.4-317.8,394.4-890.3-67-1577.6c-176.1-262.3-407.8-530.3-807.9-938.1l-400.1-405.9l3.8-101.5c1.9-53.6,44-647.1,95.7-1317.2c84.2-1089.4,97.6-1225.3,134-1296.1c44-86.1,130.2-158.9,229.7-193.4c90-28.7,1598.6-28.7,1688.6,0c153.2,51.7,256.6,181.9,277.6,346.5c3.8,45.9,51.7,637.5,105.3,1315.3c51.7,679.7,97.6,1238.7,103.4,1242.5c3.8,5.8,124.4,46,268,93.8c214.4,70.8,260.4,91.9,268,126.4c5.7,23-53.6,731.3-134,1573.7c-93.8,997.5-143.6,1600.5-139.8,1732.6c3.8,222.1-23,302.5-132.1,405.9C7710,2202.8,7754,2198.9,6433,2204.7c-1148.7,5.8-1204.2,3.8-1311.4-32.5c-109.1-36.4-112.9-36.4-216.3-1.9c-99.6,34.5-174.2,36.4-1273.2,36.4C2990.7,2204.7,2447,2200.8,2425.9,2195.1z M4897.6,1969.2c51.7-26.8,103.4-47.9,112.9-47.9c11.5,0,61.3,21.1,113,47.9l93.8,47.9h1179.4c1106.6,0,1185.1-3.8,1257.8-36.4c113-51.7,147.4-135.9,132.1-314c-7.7-101.5,26.8-539.9,132.1-1663.7c80.4-838.6,145.5-1527.8,145.5-1533.5c0-3.8-116.8-46-258.5-90c-258.5-84.2-258.5-84.2-277.6-151.2c-9.6-38.3-61.3-649-114.9-1357.4c-53.6-708.4-105.3-1307.6-114.9-1332.5c-9.6-24.9-40.2-63.2-68.9-86.2c-49.8-40.2-63.2-40.2-852-40.2h-802.2l-57.4,51.7c-42.1,38.3-63.2,76.6-70.8,130.2c-3.8,42.1-49.8,614.6-99.5,1273.2l-91.9,1196.6l346.5,354.2C6411.9-753.3,6747-230.6,6819.7,317c42.1,312.1-51.7,601.2-258.5,809.8c-195.3,195.3-421.2,285.3-708.4,283.3c-356.1-3.8-583.9-132.1-817.5-465.2l-34.4-47.9l-32.6,47.9c-237.4,337-465.2,463.3-829,463.3c-400.1,0-714.1-193.4-882.6-545.6c-225.9-476.7-9.6-1127.7,628-1889.6c91.9-111,325.5-361.8,518.8-559.1l352.3-358l-88.1-1154.5c-113-1464.6-99.6-1351.6-174.2-1426.3l-63.2-63.2h-790.7c-752.4,0-796.4,1.9-853.9,38.3c-42.1,24.9-67,59.3-80.4,109.1c-11.5,40.2-63.2,654.8-114.9,1367c-53.6,712.2-101.5,1307.6-107.2,1324.9c-7.7,15.3-122.5,67-273.8,118.7c-143.6,49.8-264.2,91.9-268,95.7c-1.9,1.9,63.2,710.3,147.4,1571.8c90,924.7,147.4,1608.2,141.7,1665.6c-13.4,135.9,32.5,229.7,135.9,277.6c72.8,32.5,151.2,36.4,1257.8,36.4h1179.4L4897.6,1969.2z"/></g></g>
</svg>