<svg xmlns="http://www.w3.org/2000/svg" viewBox="0 0 1000 1000"><path d="M335.45 12.78c-19.53 4.21-38.86 14.74-53.61 29.29-22.97 22.59-31.78 49.97-30.25 93.81.77 21.25 1.72 26.04 7.27 40.97 8.23 22.21 21.06 41.55 38.1 57.25 24.31 22.59 50.16 31.4 78.69 26.99 20.29-3.25 35.42-11.3 53.41-28.33 20.29-19.53 32.93-39.63 40.59-65.09 9.19-30.25 2.68-83.09-13.21-108.17-8.23-13.02-27.38-29.67-42.89-37.33-24.31-11.88-51.68-15.13-78.1-9.39zm50.92 18.76c23.36 6.13 47.86 24.7 57.24 43.46 10.34 20.29 15.12 58.58 9.76 80.6-6.32 26.99-20.29 49.97-41.74 67.97-18.57 15.7-25.85 18.57-48.44 18.76-17.8 0-20.1-.38-31.78-6.13-25.85-12.83-51.69-47.1-59.35-79.07-5.55-22.4-1.34-64.14 8.04-82.71 9.38-18.38 29.87-34.46 53.22-41.93 13.04-4.2 39.27-4.59 53.05-.95zM611.14 12.78c-18.19 3.83-38.48 14.55-52.46 27.57-22.02 20.68-31.78 46.91-32.36 87.11-.38 27.76 2.49 40.2 15.13 66.05 7.66 15.32 11.68 20.87 26.42 35.61 20.49 20.68 34.27 28.33 55.71 31.78 29.48 4.59 54.95-4.02 79.45-26.61 30.63-28.33 45.95-62.41 45.95-102.04 0-40.4-11.49-71.41-34.27-92.09-27.57-25.28-66.05-35.61-103.57-27.38zm51.88 19.14c15.89 4.79 28.14 11.68 39.63 22.4 17.61 16.85 23.55 31.02 27.19 65.09 2.68 24.31-.19 40.78-11.3 63.95-9.95 20.68-31.78 43.84-49.2 52.46-21.25 10.53-50.54 9.57-68.16-2.11-23.17-15.51-41.74-39.44-50.73-65.67-4.79-13.79-5.36-18.38-5.36-38.67 0-37.33 6.89-56.67 26.42-75.05 12.64-11.68 24.7-18.57 39.44-22.59 12.82-3.64 39.62-3.44 52.07.19zM242.59 292.49c-16.66 3.64-27.19 11.3-33.89 24.31-3.25 6.13-4.02 11.1-3.83 23.17.19 8.42-6.7 86.35-15.12 173.07-8.42 86.92-14.93 159.86-14.36 162.16.96 3.64 5.74 5.74 28.14 13.21 14.74 4.98 27.19 9.96 27.57 11.29.38 1.15 4.59 55.9 9.57 121.76 4.79 65.86 9.57 125.21 10.53 131.91 2.3 15.7 8.81 25.27 21.63 31.78l9.76 4.79h78.5c49.59 0 81.37-.77 85.96-2.11 9.96-2.68 21.44-13.59 25.08-23.36 2.11-5.55 5.94-47.48 12.83-136.89l9.76-128.85-40.01-40.59c-67.57-68.52-97.06-108.72-111.61-152.18-8.23-24.7-9.57-45.18-4.21-62.8 6.89-22.4 23.36-40.01 45.76-48.82 8.81-3.45 14.93-4.4 30.25-4.4 18-.19 20.1.19 32.16 6.13 14.93 7.47 27.57 20.68 38.87 40.59 11.49 20.49 17.04 20.29 28.52-.38 10.91-19.53 23.74-32.74 38.86-40.21 11.87-5.93 13.98-6.32 31.97-6.13 21.63 0 35.23 4.02 49.39 14.93 41.74 31.78 39.44 89.03-6.7 157.76-17.61 26.23-40.78 53.03-80.79 93.81l-40.01 40.59.38 10.15c.19 5.36 4.4 64.71 9.57 131.72 8.42 108.94 9.76 122.53 13.4 129.61 4.4 8.61 13.02 15.89 22.97 19.34 9 2.87 159.86 2.87 168.86 0 15.32-5.17 25.66-18.19 27.76-34.65.38-4.59 5.17-63.75 10.53-131.53 5.17-67.97 9.76-123.87 10.34-124.25.38-.58 12.44-4.6 26.8-9.38 21.44-7.08 26.04-9.19 26.8-12.64.57-2.3-5.36-73.13-13.4-157.37-9.38-99.75-14.36-160.05-13.98-173.26.38-22.21-2.3-30.25-13.21-40.59-12.99-12.46-8.59-12.07-140.69-12.65-114.87-.58-120.42-.38-131.14 3.25-10.91 3.64-11.29 3.64-21.63.19-9.96-3.45-17.42-3.64-127.32-3.64-64.14.2-118.51.59-120.62 1.16zm247.17 22.59c5.17 2.68 10.34 4.79 11.29 4.79 1.15 0 6.13-2.11 11.3-4.79l9.38-4.79h117.94c110.66 0 118.51.38 125.78 3.64 11.3 5.17 14.74 13.59 13.21 31.4-.77 10.15 2.68 53.99 13.21 166.37 8.04 83.86 14.55 152.78 14.55 153.35 0 .38-11.68 4.6-25.85 9-25.85 8.42-25.85 8.42-27.76 15.12-.96 3.83-6.13 64.9-11.49 135.74s-10.53 130.76-11.49 133.25c-.96 2.49-4.02 6.32-6.89 8.62-4.98 4.02-6.32 4.02-85.2 4.02h-80.22l-5.74-5.17c-4.21-3.83-6.32-7.66-7.08-13.02-.38-4.21-4.98-61.46-9.95-127.32l-9.19-119.66 34.65-35.42c80.98-82.88 114.49-135.15 121.76-189.91 4.21-31.21-5.17-60.12-25.85-80.98-19.53-19.53-42.12-28.53-70.84-28.33-35.61.38-58.39 13.21-81.75 46.52l-3.44 4.79-3.26-4.79c-23.74-33.7-46.52-46.33-82.9-46.33-40.01 0-71.41 19.34-88.26 54.56-22.59 47.67-.96 112.77 62.8 188.96 9.19 11.1 32.55 36.18 51.88 55.91l35.23 35.8-8.81 115.45c-11.3 146.46-9.96 135.16-17.42 142.63l-6.32 6.32h-79.07c-75.24 0-79.64-.19-85.39-3.83-4.21-2.49-6.7-5.93-8.04-10.91-1.15-4.02-6.32-65.48-11.49-136.7-5.36-71.22-10.15-130.76-10.72-132.49-.77-1.53-12.25-6.7-27.38-11.87-14.36-4.98-26.42-9.19-26.8-9.57-.19-.19 6.32-71.03 14.74-157.18 9-92.47 14.74-160.82 14.17-166.56-1.34-13.59 3.25-22.97 13.59-27.76 7.28-3.25 15.12-3.64 125.78-3.64h117.94l9.4 4.78z"/></svg>
