<svg xmlns="http://www.w3.org/2000/svg" x="0px" y="0px" viewBox="0 0 56 56">
  <path d="M52.3 25.3c-1.5 0-2.7 1.2-2.7 2.7v21.6H6.4V28c0-1.5-1.2-2.7-2.7-2.7S1 26.5 1 28v24.3C1 53.8 2.2 55 3.7 55h48.6c1.5 0 2.7-1.2 2.7-2.7V28c0-1.5-1.2-2.7-2.7-2.7z"/>
  <path d="M26.1 42.1c.1.1.3.2.4.3.1 0 .1.1.2.1s.2.1.3.1c.1 0 .2.1.3.1.1 0 .2.1.2.1.2 0 .4.1.5.1.2 0 .4 0 .5-.1.1 0 .2 0 .2-.1.1 0 .2 0 .3-.1.1 0 .2-.1.3-.1.1 0 .1-.1.2-.1.1-.1.3-.2.4-.3L42 30c1.1-1.1 1.1-2.8 0-3.8-1.1-1.1-2.8-1.1-3.8 0l-7.5 7.5v-30C30.7 2.2 29.5 1 28 1c-1.5 0-2.7 1.2-2.7 2.7v29.9l-7.5-7.5C16.7 25 15 25 14 26.1c-1.1 1.1-1.1 2.8 0 3.8l12.1 12.2z"/>
</svg>
