<svg xmlns="http://www.w3.org/2000/svg" x="0px" y="0px" viewBox="0 0 56 56">
  <path d="M53.9 10.3H2.1c-1 0-1.8.8-1.8 1.8v28.7c0 2 1.6 3.6 3.6 3.6h49.9c1 0 1.8-.8 1.8-1.8V12.1c.1-1-.7-1.8-1.7-1.8zm-1.8 30.6l-48.2-.1v-27h48.2v27.1z"/>
  <path d="M7.8 36.7c.3.5.9.7 1.4.7.4 0 .7-.1 1.1-.4l9.4-7.1c.2-.1.3-.3.4-.5l6.9 5.2c.3.2.7.4 1.1.4s.7-.1 1.1-.4l6.9-5.2c.1.2.2.3.4.5l9.4 7.1c.3.2.7.4 1.1.4.5 0 1.1-.2 1.4-.7.6-.8.4-1.9-.4-2.5l-9.1-6.8 9.1-6.8c.8-.6.9-1.7.4-2.5-.6-.8-1.7-.9-2.5-.4L28 31.1 10.2 17.7c-.8-.6-1.9-.4-2.5.4-.6.8-.4 1.9.4 2.5l9.1 6.8-9.1 6.8c-.8.6-.9 1.7-.3 2.5z"/>
</svg>
