<?xml version="1.0" encoding="iso-8859-1"?>
<!-- Generator: Adobe Illustrator 18.0.0, SVG Export Plug-In . SVG Version: 6.00 Build 0)  -->
<!DOCTYPE svg PUBLIC "-//W3C//DTD SVG 1.1//EN" "http://www.w3.org/Graphics/SVG/1.1/DTD/svg11.dtd">
<svg version="1.1" id="Capa_1" xmlns="http://www.w3.org/2000/svg" xmlns:xlink="http://www.w3.org/1999/xlink" x="0px" y="0px"
	 viewBox="0 0 383.236 383.236" style="enable-background:new 0 0 383.236 383.236;" xml:space="preserve">
<g>
	<path d="M82.739,0.979c-2.485,0-4.5,2.015-4.5,4.5v88.5h-10v-88.5c0-2.485-2.015-4.5-4.5-4.5c-2.485,0-4.5,2.015-4.5,4.5v88.5h-10
		v-88.5c0-2.485-2.015-4.5-4.5-4.5c-2.485,0-4.5,2.015-4.5,4.5v88.5h-10v-88.5c0-2.485-2.015-4.5-4.5-4.5
		c-2.485,0-4.5,2.015-4.5,4.5v115.5c0,13.595,8.405,25.739,20.826,30.672l-5.954,212.942c-0.157,5.612,2.232,10.887,6.554,14.47
		c3.247,2.69,7.357,4.173,11.574,4.173s8.328-1.482,11.574-4.173c4.322-3.583,6.711-8.856,6.555-14.47l-5.954-212.942
		c12.421-4.933,20.826-17.077,20.826-30.672V5.479C87.239,2.994,85.224,0.979,82.739,0.979z M78.239,120.979
		c0,10.765-7.242,20.277-17.612,23.133c-1.998,0.551-3.361,2.394-3.303,4.465l6.047,216.268c0.079,2.828-1.125,5.484-3.302,7.289
		c-1.635,1.357-3.706,2.103-5.83,2.103c-2.125,0-4.195-0.746-5.831-2.103c-2.177-1.805-3.381-4.461-3.302-7.288l6.047-216.269
		c0.058-2.071-1.306-3.914-3.303-4.465c-10.37-2.855-17.612-12.368-17.612-23.133v-18h48V120.979z"/>
	<path d="M195.156,0.979c-28.816,0-51.167,48.649-51.167,90.5c0,17.869,4.09,32.306,12.156,42.909
		c6.638,8.726,15.861,14.538,26.845,16.964l-5.962,213.241c-0.157,5.612,2.232,10.886,6.554,14.47
		c3.247,2.69,7.357,4.173,11.574,4.173c4.217,0,8.328-1.482,11.575-4.174c4.322-3.583,6.711-8.856,6.554-14.469l-5.962-213.241
		c10.984-2.426,20.206-8.238,26.845-16.964c8.066-10.604,12.156-25.04,12.156-42.909C246.323,49.629,223.971,0.979,195.156,0.979z
		 M202.083,143.161c-2.266,0.321-3.929,2.293-3.865,4.581l6.07,217.104c0.079,2.827-1.125,5.483-3.301,7.288
		c-1.636,1.355-3.707,2.103-5.831,2.103c-2.124,0-4.195-0.747-5.83-2.102c-2.177-1.806-3.381-4.462-3.302-7.289l6.07-217.104
		c0.064-2.288-1.599-4.26-3.865-4.581c-22.725-3.229-35.24-21.583-35.24-51.682c0-40.369,21.28-81.5,42.167-81.5
		c20.886,0,42.167,41.131,42.167,81.5C237.323,121.578,224.807,139.933,202.083,143.161z"/>
	<path d="M225.993,112.706c-2.249-1.063-4.93-0.1-5.99,2.148c-2.12,4.491-4.943,8.105-8.391,10.742
		c-1.974,1.51-2.351,4.334-0.84,6.308c0.886,1.158,2.224,1.767,3.578,1.767c0.953,0,1.915-0.302,2.73-0.926
		c4.601-3.519,8.322-8.245,11.061-14.049C229.203,116.449,228.241,113.767,225.993,112.706z"/>
	<path d="M211.88,39.363c7.782,13.131,12.81,32.99,12.81,50.594c0,3.149-0.162,6.182-0.48,9.013
		c-0.278,2.47,1.499,4.697,3.969,4.975c0.171,0.02,0.34,0.028,0.508,0.028c2.26,0,4.208-1.698,4.466-3.997
		c0.356-3.164,0.537-6.534,0.537-10.019c0-19.396-5.391-40.541-14.068-55.182c-1.266-2.139-4.026-2.845-6.166-1.577
		C211.319,34.465,210.613,37.226,211.88,39.363z"/>
	<path d="M335.361,0c-10.126,0-18.363,8.237-18.363,18.363v177.38l-4.721,168.851c-0.157,5.612,2.232,10.887,6.555,14.47
		c3.246,2.69,7.356,4.173,11.574,4.173c4.217,0,8.327-1.482,11.574-4.174c4.322-3.583,6.711-8.856,6.554-14.469l-4.408-157.66
		c10.553-3.668,17.873-13.701,17.873-25.156V26.637C361.997,11.949,350.048,0,335.361,0z M352.997,181.777
		c0,8.455-6.02,15.739-14.313,17.32c-2.169,0.413-3.718,2.339-3.656,4.546l4.507,161.202c0.079,2.827-1.124,5.483-3.301,7.288
		c-1.636,1.355-3.707,2.103-5.831,2.103c-2.124,0-4.195-0.746-5.831-2.103c-2.177-1.805-3.381-4.461-3.302-7.288l4.723-168.914
		c0.001-0.042,0.002-0.084,0.002-0.126V18.363c0-5.163,4.2-9.363,9.363-9.363c9.725,0,17.637,7.912,17.637,17.637V181.777z"/>
	<path d="M343.927,50.313c-2.485,0-4.5,2.015-4.5,4.5v47c0,2.485,2.015,4.5,4.5,4.5c2.485,0,4.5-2.015,4.5-4.5v-47
		C348.427,52.327,346.412,50.313,343.927,50.313z"/>
	<path d="M343.928,21.813c-2.485,0-4.5,2.015-4.5,4.5v15c0,2.485,2.015,4.5,4.5,4.5c2.485,0,4.5-2.015,4.5-4.5v-15
		C348.428,23.827,346.413,21.813,343.928,21.813z"/>
</g>
<g>
</g>
<g>
</g>
<g>
</g>
<g>
</g>
<g>
</g>
<g>
</g>
<g>
</g>
<g>
</g>
<g>
</g>
<g>
</g>
<g>
</g>
<g>
</g>
<g>
</g>
<g>
</g>
<g>
</g>
</svg>
