<svg xmlns="http://www.w3.org/2000/svg" x="0px" y="0px" viewBox="0 0 484 478">
  <path d="M448 80.1c-10-.3-19.4 3.3-26.5 10.3-7.1 6.9-11.1 16.2-11.1 26.2v112.8c-.7-.8-1.3-1.6-2.1-2.4-6.8-7.2-16.1-11.3-26-11.5-10-.2-19.3 3.6-26.3 10.7l-101 101c-6.1 6.1-10.7 13.1-13.6 20.4-2.6-7.6-6.9-14.6-12.8-20.4l-101-101c-7-7-16.4-10.8-26.3-10.7-9.9.1-19.2 4.2-26 11.5l-2.1 2.4V116.5c0-9.9-3.9-19.2-11.1-26.2C55 83.4 45.6 79.7 35.6 80 16.3 80.7.5 97.6.5 117.9v140.6c0 11.3 4.4 22 12.4 30l95.6 95.6c6 6.1 9.4 14.1 9.4 22.7V474c0 2.2 1.8 4 4 4s4-1.8 4-4v-67.3c0-10.7-4.2-20.7-11.7-28.3l-95.6-95.6c-6.5-6.5-10.1-15.1-10.1-24.3V117.9c0-16 12.4-29.3 27.6-29.8 7.8-.2 15.1 2.6 20.7 8s8.6 12.7 8.6 20.4v130.1c0 .8.2 1.5.6 2.2-.7 10.6 3 21.7 11.2 29.8l53.6 53.6c1.6 1.6 4.1 1.6 5.7 0 1.6-1.6 1.6-4.1 0-5.7l-53.6-53.6c-11.3-11.3-12-29.5-1.6-40.5 5.3-5.7 12.5-8.8 20.3-9 7.8-.1 15 2.8 20.5 8.3l101 101c8.5 8.5 13.2 19.8 13.4 31.8l1.4 89.3c0 2.2 1.8 3.9 4 3.9h.3c2.2 0 4-1.8 4-4v-89.3c.1-10.9 5.5-22.5 14.7-31.8l101-101c5.5-5.5 12.8-8.4 20.5-8.3 7.8.1 15 3.3 20.3 9 10.4 11.1 9.7 29.3-1.6 40.5l-53.6 53.6c-1.6 1.6-1.6 4.1 0 5.7 1.6 1.6 4.1 1.6 5.7 0l53.6-53.6c8.2-8.2 11.9-19.2 11.2-29.8.4-.6.6-1.4.6-2.2v-130c0-7.8 3.1-15 8.6-20.4 5.6-5.4 12.9-8.2 20.7-8 15.2.5 27.5 13.8 27.5 29.8v140.6c0 9.2-3.6 17.8-10.1 24.3l-95.6 95.6C362.1 386 358 396 358 406.7V474c0 2.2 1.8 4 4 4s4-1.8 4-4v-67.3c0-8.6 3.3-16.6 9.4-22.7l95.6-95.6c8-8 12.4-18.7 12.4-30V117.9c-.1-20.3-15.9-37.2-35.4-37.8z"/>
  <path d="M240.5 164.7c22.4 0 40.7-18.3 40.7-40.7 0-22.4-18.3-40.7-40.7-40.7-22.4 0-40.7 18.3-40.7 40.7 0 22.4 18.2 40.7 40.7 40.7zm0-73.4c18 0 32.7 14.7 32.7 32.7 0 18-14.7 32.7-32.7 32.7-18 0-32.7-14.7-32.7-32.7 0-18.1 14.6-32.7 32.7-32.7z"/>
  <path d="M120.5 149.5h21.9c2.6 10.2 6.8 19.8 12.3 28.6L138.8 194c-1.6 1.6-1.6 4.1 0 5.7l28.6 28.6c1.6 1.6 4.1 1.6 5.7 0l16.6-16.6c8.8 5.1 18.1 8.8 27.8 11.1v23.9c0 2.2 1.8 4 4 4H262c2.2 0 4-1.8 4-4V222c9.5-2.5 18.5-6.3 26.9-11.4l17.5 17.5c1.6 1.6 4.1 1.6 5.7 0l28.6-28.6c1.6-1.6 1.6-4.1 0-5.7l-17.5-17.5c5.1-8.4 8.9-17.4 11.4-26.9h24.6c2.2 0 4-1.8 4-4V105c0-2.2-1.8-4-4-4h-23.9c-2.3-9.7-6-19.1-11.1-27.8l16.6-16.6c1.6-1.6 1.6-4.1 0-5.7l-28.6-28.6c-1.6-1.6-4.1-1.6-5.7 0l-15.9 15.9c-8.8-5.6-18.4-9.7-28.6-12.3V4c0-2.2-1.8-4-4-4h-40.4c-2.2 0-4 1.8-4 4v21.2c-10.4 2.4-20.3 6.4-29.5 12l-14.9-14.9c-1.6-1.6-4.1-1.6-5.7 0L138.9 51c-1.6 1.6-1.6 4.1 0 5.7l14.9 14.9c-5.6 9.2-9.6 19.1-12 29.5h-21.2c-2.2 0-4 1.8-4 4v40.4c-.1 2.2 1.7 4 3.9 4zm4-40.4H145c1.9 0 3.6-1.4 3.9-3.2 2.3-11.6 6.8-22.6 13.3-32.7 1-1.6.8-3.7-.5-5l-14.3-14.3L170.3 31l14.3 14.3c1.3 1.3 3.4 1.6 5 .5 10.1-6.6 21.1-11 32.7-13.3 1.9-.4 3.2-2 3.2-3.9V8H258v21.1c0 1.9 1.3 3.5 3.1 3.9 11.5 2.6 22.2 7.2 31.7 13.7 1.6 1.1 3.7.9 5.1-.5l15.3-15.3 22.9 22.9-16 16c-1.3 1.3-1.6 3.4-.6 4.9 6 9.7 10.2 20.2 12.4 31.1.4 1.9 2 3.2 3.9 3.2h23.1v32.4h-23.7c-1.9 0-3.5 1.3-3.9 3.1-2.4 10.8-6.7 20.9-12.7 30.2-1 1.6-.8 3.7.5 5l17 17-22.9 22.9-17-17c-1.3-1.3-3.4-1.6-5-.5-9.2 6-19.4 10.3-30.2 12.7-1.8.4-3.1 2-3.1 3.9v23.7h-32.4v-23.1c0-1.9-1.4-3.6-3.2-3.9-11-2.2-21.4-6.3-31.1-12.4-1.6-1-3.6-.7-4.9.6l-16 16-22.9-22.9 15.3-15.3c1.4-1.4 1.6-3.5.5-5.1-6.5-9.6-11.1-20.2-13.7-31.7-.4-1.8-2-3.1-3.9-3.1h-21.1v-32.4z"/>
</svg>
