<svg xmlns="http://www.w3.org/2000/svg" viewBox="0 0 576.814 576.814"><path d="M318.467 124.071c-14.497-13.512-31.096 5.183-31.096 5.183h-.125s-16.6-18.695-31.097-5.183-1.807 44.542 31.097 58.054l.125.019c32.903-13.512 45.583-44.561 31.096-58.073zM60.261 407.905l76.519-76.52c15.721 11.284 36.691 8.444 51.179-6.033l90.547-90.548a6.377 6.377 0 0 0 0-9.027l-45.135-45.135a6.377 6.377 0 0 0-9.027 0l-90.538 90.538c-14.478 14.478-17.328 35.458-6.043 51.179l-76.5 76.5C26.582 374.771 4.292 358.562.543 362.311c-3.949 3.949 14.076 28.362 40.249 54.544 26.173 26.173 50.595 44.198 54.544 40.249 3.663-3.681-11.81-25.139-35.075-49.199zM525.543 398.85l-76.5-76.5c11.283-15.711 8.443-36.691-6.044-51.169l-90.537-90.538a6.377 6.377 0 0 0-9.027 0L298.3 225.778a6.377 6.377 0 0 0 0 9.027l90.547 90.548c14.478 14.478 35.458 17.327 51.179 6.033l76.52 76.52c-23.266 24.06-38.738 45.518-35.066 49.199 3.949 3.949 28.362-14.076 54.545-40.249 26.173-26.172 44.198-50.595 40.248-54.544-3.759-3.759-26.049 12.45-50.73 36.538z"/></svg>