<?xml version="1.0" encoding="iso-8859-1"?>
<!-- Generator: Adobe Illustrator 19.0.0, SVG Export Plug-In . SVG Version: 6.00 Build 0)  -->
<svg version="1.1" id="Layer_1" xmlns="http://www.w3.org/2000/svg" xmlns:xlink="http://www.w3.org/1999/xlink" x="0px" y="0px"
	 viewBox="0 0 512 512" style="enable-background:new 0 0 512 512;" xml:space="preserve">
<g>
	<g>
		<g>
			<path d="M177.853,172.463h-32.337c-4.465,0-8.084,3.619-8.084,8.084c0,4.466,3.62,8.084,8.084,8.084h32.337
				c4.465,0,8.084-3.618,8.084-8.084C185.937,176.082,182.317,172.463,177.853,172.463z"/>
			<path d="M211.267,172.463h-1.078c-4.465,0-8.084,3.619-8.084,8.084c0,4.466,3.62,8.084,8.084,8.084h1.078
				c4.465,0,8.084-3.618,8.084-8.084C219.352,176.082,215.732,172.463,211.267,172.463z"/>
			<path d="M463.918,104.48l-24.676-4.936V83.537c0-28.231-22.969-51.2-51.2-51.2h-18.863v-2.695
				C369.179,13.298,355.881,0,339.537,0h-21.558c-16.344,0-29.642,13.298-29.642,29.642v2.695H53.895
				c-16.345,0-29.642,13.298-29.642,29.642v388.042c0,16.344,13.297,29.642,29.642,29.642h234.442v2.695
				c0,16.344,13.298,29.642,29.642,29.642h21.558c16.344,0,29.642-13.298,29.642-29.642v-2.695h18.863
				c28.231,0,51.2-22.969,51.2-51.2V218.434l24.676-4.936c13.809-2.763,23.829-14.986,23.829-29.068v-50.884
				C487.747,119.466,477.726,107.242,463.918,104.48z M115.874,113.179h169.768c7.43,0,13.474,6.044,13.474,13.474v107.789
				c0,7.43-6.044,13.474-13.474,13.474H115.874V113.179z M99.705,463.495h-45.81c-7.43,0-13.474-6.044-13.474-13.474V264.084h59.284
				V463.495z M99.705,247.916H40.421V113.179h59.284V247.916z M99.705,97.011H40.421V61.979c0-7.43,6.044-13.474,13.474-13.474
				h45.81V97.011z M353.01,482.358c0,7.43-6.044,13.474-13.474,13.474h-21.558c-7.43,0-13.474-6.044-13.474-13.474v-2.695h26.947
				c4.466,0,8.084-3.618,8.084-8.084c0-4.466-3.619-8.084-8.084-8.084H115.874V264.084h169.768
				c16.344,0,29.642-13.298,29.642-29.642V126.653c0-16.344-13.298-29.642-29.642-29.642H115.874V48.505h215.579
				c4.466,0,8.084-3.618,8.084-8.084c0-4.466-3.619-8.084-8.084-8.084h-26.947v-2.695c0-7.43,6.044-13.474,13.474-13.474h21.558
				c7.43,0,13.474,6.044,13.474,13.474V482.358z M423.074,428.463c0,19.317-15.715,35.032-35.032,35.032h-18.863V48.505h18.863
				c19.317,0,35.032,15.715,35.032,35.032V428.463z M471.579,184.432c0,6.401-4.556,11.957-10.832,13.213l-21.505,4.301v-85.911
				l21.505,4.301c6.275,1.256,10.832,6.812,10.832,13.213V184.432z"/>
			<path d="M242.526,140.126h-97.01c-4.465,0-8.084,3.618-8.084,8.084c0,4.466,3.62,8.084,8.084,8.084h97.01
				c4.465,0,8.084-3.618,8.084-8.084C250.611,143.745,246.991,140.126,242.526,140.126z"/>
		</g>
	</g>
</g>
<g>
</g>
<g>
</g>
<g>
</g>
<g>
</g>
<g>
</g>
<g>
</g>
<g>
</g>
<g>
</g>
<g>
</g>
<g>
</g>
<g>
</g>
<g>
</g>
<g>
</g>
<g>
</g>
<g>
</g>
</svg>
