<?xml version="1.0" encoding="iso-8859-1"?>
<!-- Generator: Adobe Illustrator 19.1.0, SVG Export Plug-In . SVG Version: 6.00 Build 0)  -->
<svg version="1.1" id="Capa_1" xmlns="http://www.w3.org/2000/svg" xmlns:xlink="http://www.w3.org/1999/xlink" x="0px" y="0px"
	 viewBox="0 0 63 63" style="enable-background:new 0 0 63 63;" xml:space="preserve">
<g>
	<g id="group-46svg">
		<path id="path-1_91_" d="M58.5,53.5c0,5.247-4.253,9.5-9.5,9.5H14c-5.247,0-9.5-4.253-9.5-9.5v-44C4.5,4.253,8.753,0,14,0h35
			c5.247,0,9.5,4.253,9.5,9.5V53.5z M55.5,9.5C55.5,5.91,52.59,3,49,3H14c-3.59,0-6.5,2.91-6.5,6.5v44c0,3.59,2.91,6.5,6.5,6.5h35
			c3.59,0,6.5-2.91,6.5-6.5V9.5z"/>
		<path id="path-2_90_" d="M50.073,14h-36c-0.828,0-1.5-0.672-1.5-1.5s0.672-1.5,1.5-1.5h36c0.828,0,1.5,0.672,1.5,1.5
			S50.901,14,50.073,14z"/>
		<path id="path-3_81_" d="M50.073,22h-36c-0.828,0-1.5-0.672-1.5-1.5s0.672-1.5,1.5-1.5h36c0.828,0,1.5,0.672,1.5,1.5
			S50.901,22,50.073,22z"/>
		<path id="path-4_67_" d="M31.633,47.504c0.003,0.003-0.079-0.001-0.119-0.004c-1.205,0.098-3.141-1.526-5.832-4.867
			c-1.791-2.223-3.925-5.296-3.925-7.319c0-3.68,2.994-6.674,6.674-6.674c1.289,0,2.277,0.816,3.083,1.566
			c0.805-0.75,1.794-1.566,3.082-1.566c3.68,0,6.674,2.994,6.674,6.674c0,2.023-2.133,5.097-3.924,7.319
			C34.742,45.865,32.82,47.504,31.633,47.504z M28.424,31.64c-2.019,0-3.667,1.648-3.667,3.674c0,1.744,5.007,7.918,6.757,9.112
			c1.75-1.194,6.756-7.368,6.756-9.112c0-2.026-1.648-3.674-3.674-3.674c-0.265,0.031-0.945,0.672-1.272,0.981
			c-0.295,0.278-0.6,0.565-0.915,0.8c-0.531,0.396-1.26,0.396-1.791,0c-0.314-0.234-0.62-0.522-0.915-0.8
			C29.376,32.312,28.695,31.67,28.424,31.64z"/>
	</g>
</g>
</svg>
