<svg xmlns="http://www.w3.org/2000/svg" viewBox="0 0 807.953 807.953"><path d="M794.507 395.586c-26.387-62.997-85.906-103.704-151.637-103.704-20.37 0-40.241 3.995-59.057 11.877-34.791 14.572-63.058 41.839-79.611 76.22-16.564-5.661-33.95-8.611-51.122-8.611-17.22 0-34.077 2.889-50.251 8.537a135.31 135.31 0 0 0-26.88-9.349c-39.484-9.231-79.164-.077-110.807 22.056l-.002-.002c-18.558-33.867-50.069-59.659-89.551-68.887-76.017-17.767-152.782 32.604-171.46 112.51-10.262 43.899-.865 87.554 22.283 120.949l.002.022S157.688 723.441 158.04 723.879c6.33 7.909 15.222 13.852 25.849 16.336 10.658 2.491 21.292 1.097 30.485-3.22l149.096-70.761c14.062 11.12 29.855 19.991 46.887 26.059.536.21 1.083.396 1.642.554 93.014 26.357 204 57.805 204.447 57.927a64.608 64.608 0 0 0 17.211 2.342c8.521 0 16.841-1.677 24.737-4.982 13.451-5.634 24.297-15.368 31.404-28.213l102.052-186.17c.175-.32.339-.646.495-.976 20.028-42.645 20.816-92.651 2.162-137.189zM760.87 517.417L659.123 703.03c-3.22 5.818-8.149 10.246-14.256 12.805-6.048 2.537-12.812 2.922-19.037 1.2-2.257-.633-190.528-53.983-203.585-57.682-7.768-2.76-15.193-6.293-22.246-10.448l6.179-2.933c35.555-19.678 63.334-54.659 73.594-98.556 12.4-53.057-3.949-105.771-38.573-140.421 3.931-.398 7.893-.6 11.881-.6 18.017 0 36.391 4.203 53.136 12.153a17.51 17.51 0 0 0 24.052-10.077c11.612-33.438 35.434-59.151 67.075-72.405 14.51-6.076 29.826-9.158 45.527-9.158 51.577 0 98.418 32.269 119.335 82.213 14.764 35.25 14.27 74.692-1.335 108.296z"/><path d="M440.227 230.619h-.002c-10.625-6.271-23.489-8.211-35.837-4.301-23.778 7.528-36.636 33.893-28.721 58.886 4.347 13.731 14.055 24.185 25.864 29.581l.004.004 63.354 24.284a14.852 14.852 0 0 0 9.765.267 14.825 14.825 0 0 0 7.845-5.86l37.813-56.31c6.549-11.207 8.469-25.348 4.122-39.079-7.913-24.991-33.604-39.151-57.382-31.621-12.35 3.914-21.751 12.904-26.825 24.149zM220.847 238.015a495236.24 495236.24 0 0 0 38.146 36.776c4.724 4.505 10.899 7.318 17.332 7.915.937.092 1.869.136 2.791.136h.002c5.615 0 11.085-1.618 15.87-4.717l44.273-28.9c.304-.199.604-.409.895-.626 12.378-9.231 20.331-23.509 21.815-39.177 2.83-29.92-18.407-56.496-47.34-59.239a51.514 51.514 0 0 0-26.175 4.426c-7.311-5.166-15.857-8.405-24.831-9.253a51.565 51.565 0 0 0-4.857-.23c-27.403 0-50.087 21.292-52.759 49.529-1.478 15.607 3.61 31.067 13.961 42.452.279.31.573.615.877.908zm20.026-40.062c.998-10.548 9.64-18.704 19.451-17.732 4.732.447 8.983 2.92 11.973 6.965a17.515 17.515 0 0 0 12.433 7.026 17.568 17.568 0 0 0 13.53-4.57c3.66-3.38 8.384-5.028 13.07-4.597 9.71.922 16.787 10.373 15.776 21.071-.538 5.669-3.27 10.791-7.521 14.125l-39.777 25.965c-4.22-4.067-13.543-13.057-34.189-32.963-3.557-4.074-5.282-9.62-4.746-15.29zM343.604 119.855l39.436 38.019a11.967 11.967 0 0 0 7.175 3.275 11.976 11.976 0 0 0 7.679-1.88l45.856-29.933c8.401-6.265 14.287-16.172 15.381-27.749 1.992-21.071-12.637-39.692-32.685-41.592-10.415-.985-20.239 2.734-27.554 9.491-5.921-8.011-14.872-13.508-25.282-14.491-20.046-1.902-37.914 13.644-39.908 34.714-1.097 11.577 2.826 22.408 9.9 30.141l.002.005z"/></svg>