<?xml version="1.0"?>
<svg xmlns="http://www.w3.org/2000/svg" viewBox="0 0 50 50">
    <path style="text-indent:0;text-align:start;line-height:normal;text-transform:none;block-progression:tb;-inkscape-font-specification:Sans" d="M 15 2 C 7.8324839 2 2 7.8324839 2 15 L 2 35 C 2 42.167516 7.8324839 48 15 48 L 35 48 C 42.167516 48 48 42.167516 48 35 L 48 15 C 48 7.8324839 42.167516 2 35 2 L 15 2 z M 15 4 L 35 4 C 41.086484 4 46 8.9135161 46 15 L 46 35 C 46 41.086484 41.086484 46 35 46 L 15 46 C 8.9135161 46 4 41.086484 4 35 L 4 15 C 4 8.9135161 8.9135161 4 15 4 z M 38 10 C 36.895431 10 36 10.895431 36 12 C 36 13.104569 36.895431 14 38 14 C 39.104569 14 40 13.104569 40 12 C 40 10.895431 39.104569 10 38 10 z M 25 13 C 18.384428 13 13 18.384428 13 25 C 13 31.615572 18.384428 37 25 37 C 31.615572 37 37 31.615572 37 25 C 37 18.384428 31.615572 13 25 13 z M 25 15 C 30.534692 15 35 19.465308 35 25 C 35 30.534692 30.534692 35 25 35 C 19.465308 35 15 30.534692 15 25 C 15 19.465308 19.465308 15 25 15 z" overflow="visible" font-family="Sans"/>
</svg>
