<svg height="496pt" viewBox="0 0 496 496.01031" width="496pt" xmlns="http://www.w3.org/2000/svg"><path d="m488.003906 112.011719h-99.117187l55.230469-33.144531c1.945312-1.167969 3.296874-3.097657 3.734374-5.320313.441407-2.214844-.085937-4.527344-1.445312-6.335937l-48-64c-1.457031-1.945313-3.714844-3.1210942-6.136719-3.1992192-2.511719-.1289068-4.761719.9414062-6.335937 2.7890622l-89.929688 104.914063-89.925781-104.914063c-1.578125-1.839843-3.832031-2.910156-6.335937-2.7890622-2.425782.078125-4.679688 1.2539062-6.136719 3.1992192l-48 64c-1.359375 1.816406-1.886719 4.121093-1.457031 6.335937.441406 2.222656 1.792968 4.160156 3.738281 5.320313l55.238281 33.144531h-99.121094c-4.414062 0-8 3.582031-8 8v48c0 4.414062 3.585938 8 8 8h24v64h-120c-4.414062 0-7.99999975 3.582031-7.99999975 8v240c0 4.421875 3.58593775 8 7.99999975 8h448c4.417969 0 8-3.578125 8-8v-312h24c4.417969 0 8-3.585938 8-8v-48c0-4.417969-3.582031-8-8-8zm-96.414062-91.226563 36.695312 48.929688-70.496094 42.296875h-44.390624zm-227.863282 48.929688 36.695313-48.929688 78.191406 91.226563h-44.390625zm219.480469 186.296875-105.976562 76.300781c-1.320313-3.78125-3.023438-7.4375-5.28125-10.820312l-2.160157-3.234376c-5.953124-8.917968-15.902343-14.246093-26.625-14.246093h-1.214843c-8.542969 0-16.574219 3.328125-22.632813 9.375l-11.3125 11.3125-11.3125-11.3125c-6.046875-6.046875-14.085937-9.375-22.628906-9.375h-1.21875c-10.71875 0-20.671875 5.328125-26.621094 14.246093l-2.160156 3.234376c-2.257812 3.382812-3.960938 7.039062-5.28125 10.820312l-105.976562-76.300781zm64.796875 40h-32v-48c0-4.417969-3.582031-8-8-8h-80v-64h120zm-32 16h32v32h-32zm-104-72h-32v-64h32zm-48 0h-120v-64h120zm0 108.109375v1.746094c0 9.222656-3.984375 18.007812-10.925781 24.078124l-45.074219 39.433594-45.070312-39.441406c-6.945313-6.070312-10.929688-14.847656-10.929688-24.078125v-1.746094c0-6.34375 1.855469-12.480469 5.378906-17.75l2.160157-3.234375c2.964843-4.453125 7.941406-7.117187 13.300781-7.117187h1.21875c4.269531 0 8.285156 1.664062 11.320312 4.6875l16.964844 16.96875c3.128906 3.125 8.183594 3.125 11.3125 0l16.96875-16.96875c3.03125-3.023438 7.046875-4.6875 11.320313-4.6875h1.214843c5.359376 0 10.335938 2.664062 13.3125 7.125l2.160157 3.234375c3.511719 5.269531 5.367187 11.40625 5.367187 17.75zm-248 131.890625v-216.386719l120.007813 86.410156c.050781 13.773438 6.007812 26.871094 16.386719 35.949219l50.335937 44.050781c1.511719 1.320313 3.390625 1.976563 5.269531 1.976563 1.882813 0 3.761719-.65625 5.273438-1.976563l50.335937-44.050781c10.367188-9.078125 16.328125-22.167969 16.382813-35.949219l120.007812-86.410156v216.386719zm400 0v-120h32v120zm64-320h-368v-32h368zm0 0"/></svg>