<?xml version="1.0"?>
<svg xmlns="http://www.w3.org/2000/svg" viewBox="0 0 80 80">
    <path style="line-height:normal;text-indent:0;text-align:start;text-decoration-line:none;text-decoration-style:solid;text-decoration-color:#000;text-transform:none;block-progression:tb;isolation:auto;mix-blend-mode:normal" d="M 40 7 C 21.786552 7 7 21.786552 7 40 C 7 58.213448 21.786552 73 40 73 C 58.213448 73 73 58.213448 73 40 C 73 34.975355 71.872864 30.207065 69.861328 25.941406 C 69.969942 25.714605 70.088776 25.484035 70.191406 25.259766 C 71.249185 22.94828 72 20.820533 72 19 C 72 12.384534 66.615466 7 60 7 C 57.236567 7 54.695164 7.9490223 52.664062 9.5253906 C 48.763191 7.9028305 44.485007 7 40 7 z M 40 9 C 40.858839 9 41.708187 9.0404534 42.548828 9.109375 A 1 1 0 0 0 42 10 A 1 1 0 0 0 43 11 A 1 1 0 0 0 44 10 A 1 1 0 0 0 43.623047 9.21875 C 46.209725 9.5219555 48.699082 10.137237 51.050781 11.035156 C 49.160442 13.156748 48 15.942441 48 19 C 48 20.820533 48.750815 22.94828 49.808594 25.259766 C 50.866372 27.571252 52.258374 30.03406 53.646484 32.300781 C 56.422705 36.834224 59.195314 40.59375 59.195312 40.59375 L 60 41.685547 L 60.804688 40.59375 C 60.804688 40.59375 63.577295 36.834224 66.353516 32.300781 C 67.156027 30.990317 67.951629 29.614647 68.691406 28.240234 C 70.179268 31.865864 71 35.834545 71 40 C 71 55.906893 59.043858 68.99138 43.621094 70.783203 A 1 1 0 0 0 44 70 A 1 1 0 0 0 43 69 A 1 1 0 0 0 42 70 A 1 1 0 0 0 42.541016 70.886719 C 41.702146 70.954713 40.856516 71 40 71 C 39.142825 71 38.296532 70.954817 37.457031 70.886719 A 1 1 0 0 0 38 70 A 1 1 0 0 0 37 69 A 1 1 0 0 0 36 70 A 1 1 0 0 0 36.378906 70.783203 C 20.956142 68.99138 9 55.906893 9 40 C 9 24.093107 20.956142 11.00862 36.378906 9.2167969 A 1 1 0 0 0 36 10 A 1 1 0 0 0 37 11 A 1 1 0 0 0 38 10 A 1 1 0 0 0 37.458984 9.1132812 C 38.297854 9.0452869 39.143484 9 40 9 z M 60 9 C 65.534534 9 70 13.465466 70 19 C 70 20.216967 69.375815 22.232189 68.371094 24.427734 C 67.366372 26.62328 66.008374 29.031956 64.646484 31.255859 C 62.324779 35.047099 60.635845 37.326202 60 38.203125 C 59.364155 37.326202 57.675221 35.047099 55.353516 31.255859 C 53.991626 29.031956 52.633628 26.62328 51.628906 24.427734 C 50.624185 22.232189 50 20.216967 50 19 C 50 13.465466 54.465466 9 60 9 z M 40 11 A 1 1 0 0 0 39 12 A 1 1 0 0 0 40 13 A 1 1 0 0 0 41 12 A 1 1 0 0 0 40 11 z M 33 12 A 1 1 0 0 0 32 13 A 1 1 0 0 0 33 14 A 1 1 0 0 0 34 13 A 1 1 0 0 0 33 12 z M 47 12 A 1 1 0 0 0 46 13 A 1 1 0 0 0 47 14 A 1 1 0 0 0 48 13 A 1 1 0 0 0 47 12 z M 30 15 A 1 1 0 0 0 29 16 A 1 1 0 0 0 30 17 A 1 1 0 0 0 31 16 A 1 1 0 0 0 30 15 z M 40 15 A 1 1 0 0 0 39 16 A 1 1 0 0 0 40 17 A 1 1 0 0 0 41 16 A 1 1 0 0 0 40 15 z M 60 15 C 57.802706 15 56 16.802706 56 19 C 56 21.197294 57.802706 23 60 23 C 62.197294 23 64 21.197294 64 19 C 64 16.802706 62.197294 15 60 15 z M 60 17 C 61.116414 17 62 17.883586 62 19 C 62 20.116414 61.116414 21 60 21 C 58.883586 21 58 20.116414 58 19 C 58 17.883586 58.883586 17 60 17 z M 20 19 A 1 1 0 0 0 19 20 A 1 1 0 0 0 20 21 A 1 1 0 0 0 21 20 A 1 1 0 0 0 20 19 z M 24 19 A 1 1 0 0 0 23 20 A 1 1 0 0 0 24 21 A 1 1 0 0 0 25 20 A 1 1 0 0 0 24 19 z M 28 19 A 1 1 0 0 0 27 20 A 1 1 0 0 0 28 21 A 1 1 0 0 0 29 20 A 1 1 0 0 0 28 19 z M 32 19 A 1 1 0 0 0 31 20 A 1 1 0 0 0 32 21 A 1 1 0 0 0 33 20 A 1 1 0 0 0 32 19 z M 36 19 A 1 1 0 0 0 35 20 A 1 1 0 0 0 36 21 A 1 1 0 0 0 37 20 A 1 1 0 0 0 36 19 z M 40 19 A 1 1 0 0 0 39.001953 19.929688 A 1 1 0 0 0 39 20 A 1 1 0 0 0 39.929688 20.998047 A 1 1 0 0 0 40 21 A 1 1 0 0 0 41 20 A 1 1 0 0 0 40 19 z M 44 19 A 1 1 0 0 0 43 20 A 1 1 0 0 0 44 21 A 1 1 0 0 0 45 20 A 1 1 0 0 0 44 19 z M 26 23 A 1 1 0 0 0 25 24 A 1 1 0 0 0 26 25 A 1 1 0 0 0 27 24 A 1 1 0 0 0 26 23 z M 40 23 A 1 1 0 0 0 39 24 A 1 1 0 0 0 40 25 A 1 1 0 0 0 41 24 A 1 1 0 0 0 40 23 z M 25 27 A 1 1 0 0 0 24 28 A 1 1 0 0 0 25 29 A 1 1 0 0 0 26 28 A 1 1 0 0 0 25 27 z M 40 27 A 1 1 0 0 0 39 28 A 1 1 0 0 0 40 29 A 1 1 0 0 0 41 28 A 1 1 0 0 0 40 27 z M 24 31 A 1 1 0 0 0 23 32 A 1 1 0 0 0 24 33 A 1 1 0 0 0 25 32 A 1 1 0 0 0 24 31 z M 40 31 A 1 1 0 0 0 39 32 A 1 1 0 0 0 40 33 A 1 1 0 0 0 41 32 A 1 1 0 0 0 40 31 z M 23 35 A 1 1 0 0 0 22 36 A 1 1 0 0 0 23 37 A 1 1 0 0 0 24 36 A 1 1 0 0 0 23 35 z M 40 35 A 1 1 0 0 0 39 36 A 1 1 0 0 0 40 37 A 1 1 0 0 0 41 36 A 1 1 0 0 0 40 35 z M 12 39 A 1 1 0 0 0 11 40 A 1 1 0 0 0 12 41 A 1 1 0 0 0 13 40 A 1 1 0 0 0 12 39 z M 16 39 A 1 1 0 0 0 15 40 A 1 1 0 0 0 16 41 A 1 1 0 0 0 17 40 A 1 1 0 0 0 16 39 z M 20 39 A 1 1 0 0 0 19 40 A 1 1 0 0 0 20 41 A 1 1 0 0 0 21 40 A 1 1 0 0 0 20 39 z M 24 39 A 1 1 0 0 0 23 40 A 1 1 0 0 0 24 41 A 1 1 0 0 0 25 40 A 1 1 0 0 0 24 39 z M 28 39 A 1 1 0 0 0 27 40 A 1 1 0 0 0 28 41 A 1 1 0 0 0 29 40 A 1 1 0 0 0 28 39 z M 32 39 A 1 1 0 0 0 31 40 A 1 1 0 0 0 32 41 A 1 1 0 0 0 33 40 A 1 1 0 0 0 32 39 z M 36 39 A 1 1 0 0 0 35 40 A 1 1 0 0 0 36 41 A 1 1 0 0 0 37 40 A 1 1 0 0 0 36 39 z M 40 39 A 1 1 0 0 0 39 40 A 1 1 0 0 0 40 41 A 1 1 0 0 0 41 40 A 1 1 0 0 0 40 39 z M 44 39 A 1 1 0 0 0 43 40 A 1 1 0 0 0 44 41 A 1 1 0 0 0 45 40 A 1 1 0 0 0 44 39 z M 48 39 A 1 1 0 0 0 47 40 A 1 1 0 0 0 48 41 A 1 1 0 0 0 49 40 A 1 1 0 0 0 48 39 z M 52 39 A 1 1 0 0 0 51 40 A 1 1 0 0 0 52 41 A 1 1 0 0 0 53 40 A 1 1 0 0 0 52 39 z M 56 39 A 1 1 0 0 0 55 40 A 1 1 0 0 0 56 41 A 1 1 0 0 0 57 40 A 1 1 0 0 0 56 39 z M 64 39 A 1 1 0 0 0 63 40 A 1 1 0 0 0 64 41 A 1 1 0 0 0 65 40 A 1 1 0 0 0 64 39 z M 68 39 A 1 1 0 0 0 67 40 A 1 1 0 0 0 68 41 A 1 1 0 0 0 69 40 A 1 1 0 0 0 68 39 z M 23 43 A 1 1 0 0 0 22 44 A 1 1 0 0 0 23 45 A 1 1 0 0 0 24 44 A 1 1 0 0 0 23 43 z M 40 43 A 1 1 0 0 0 39 44 A 1 1 0 0 0 40 45 A 1 1 0 0 0 41 44 A 1 1 0 0 0 40 43 z M 57 43 A 1 1 0 0 0 56 44 A 1 1 0 0 0 57 45 A 1 1 0 0 0 58 44 A 1 1 0 0 0 57 43 z M 24 47 A 1 1 0 0 0 23 48 A 1 1 0 0 0 24 49 A 1 1 0 0 0 25 48 A 1 1 0 0 0 24 47 z M 40 47 A 1 1 0 0 0 39 48 A 1 1 0 0 0 40 49 A 1 1 0 0 0 41 48 A 1 1 0 0 0 40 47 z M 56 47 A 1 1 0 0 0 55 48 A 1 1 0 0 0 56 49 A 1 1 0 0 0 57 48 A 1 1 0 0 0 56 47 z M 25 51 A 1 1 0 0 0 24 52 A 1 1 0 0 0 25 53 A 1 1 0 0 0 26 52 A 1 1 0 0 0 25 51 z M 40 51 A 1 1 0 0 0 39 52 A 1 1 0 0 0 40 53 A 1 1 0 0 0 41 52 A 1 1 0 0 0 40 51 z M 55 51 A 1 1 0 0 0 54 52 A 1 1 0 0 0 55 53 A 1 1 0 0 0 56 52 A 1 1 0 0 0 55 51 z M 26 55 A 1 1 0 0 0 25 56 A 1 1 0 0 0 26 57 A 1 1 0 0 0 27 56 A 1 1 0 0 0 26 55 z M 40 55 A 1 1 0 0 0 39 56 A 1 1 0 0 0 40 57 A 1 1 0 0 0 41 56 A 1 1 0 0 0 40 55 z M 54 55 A 1 1 0 0 0 53 56 A 1 1 0 0 0 54 57 A 1 1 0 0 0 55 56 A 1 1 0 0 0 54 55 z M 20 59 A 1 1 0 0 0 19 60 A 1 1 0 0 0 20 61 A 1 1 0 0 0 21 60 A 1 1 0 0 0 20 59 z M 24 59 A 1 1 0 0 0 23 60 A 1 1 0 0 0 24 61 A 1 1 0 0 0 25 60 A 1 1 0 0 0 24 59 z M 28 59 A 1 1 0 0 0 27 60 A 1 1 0 0 0 28 61 A 1 1 0 0 0 29 60 A 1 1 0 0 0 28 59 z M 32 59 A 1 1 0 0 0 31 60 A 1 1 0 0 0 32 61 A 1 1 0 0 0 33 60 A 1 1 0 0 0 32 59 z M 36 59 A 1 1 0 0 0 35 60 A 1 1 0 0 0 36 61 A 1 1 0 0 0 37 60 A 1 1 0 0 0 36 59 z M 40 59 A 1 1 0 0 0 39.001953 59.929688 A 1 1 0 0 0 39 60 A 1 1 0 0 0 39.929688 60.998047 A 1 1 0 0 0 40 61 A 1 1 0 0 0 41 60 A 1 1 0 0 0 40 59 z M 44 59 A 1 1 0 0 0 43 60 A 1 1 0 0 0 44 61 A 1 1 0 0 0 45 60 A 1 1 0 0 0 44 59 z M 48 59 A 1 1 0 0 0 47 60 A 1 1 0 0 0 48 61 A 1 1 0 0 0 49 60 A 1 1 0 0 0 48 59 z M 52 59 A 1 1 0 0 0 51 60 A 1 1 0 0 0 52 61 A 1 1 0 0 0 53 60 A 1 1 0 0 0 52 59 z M 56 59 A 1 1 0 0 0 55 60 A 1 1 0 0 0 56 61 A 1 1 0 0 0 57 60 A 1 1 0 0 0 56 59 z M 60 59 A 1 1 0 0 0 59 60 A 1 1 0 0 0 60 61 A 1 1 0 0 0 61 60 A 1 1 0 0 0 60 59 z M 30 63 A 1 1 0 0 0 29 64 A 1 1 0 0 0 30 65 A 1 1 0 0 0 31 64 A 1 1 0 0 0 30 63 z M 40 63 A 1 1 0 0 0 39 64 A 1 1 0 0 0 40 65 A 1 1 0 0 0 41 64 A 1 1 0 0 0 40 63 z M 50 63 A 1 1 0 0 0 49 64 A 1 1 0 0 0 50 65 A 1 1 0 0 0 51 64 A 1 1 0 0 0 50 63 z M 33 66 A 1 1 0 0 0 32 67 A 1 1 0 0 0 33 68 A 1 1 0 0 0 34 67 A 1 1 0 0 0 33 66 z M 47 66 A 1 1 0 0 0 46 67 A 1 1 0 0 0 47 68 A 1 1 0 0 0 48 67 A 1 1 0 0 0 47 66 z M 40 67 A 1 1 0 0 0 39 68 A 1 1 0 0 0 40 69 A 1 1 0 0 0 41 68 A 1 1 0 0 0 40 67 z"/>
</svg>
