<?xml version="1.0" encoding="utf-8"?>
<!-- Generator: Adobe Illustrator 22.1.0, SVG Export Plug-In . SVG Version: 6.00 Build 0)  -->
<svg version="1.1" id="Layer_1" xmlns="http://www.w3.org/2000/svg" xmlns:xlink="http://www.w3.org/1999/xlink" x="0px" y="0px"
	 viewBox="0 0 56 56" style="enable-background:new 0 0 56 56;" xml:space="preserve">
<path d="M5.8,42h1.4c1.3,0,2.3-1,2.3-2.4c0-1.3-1-2.4-2.3-2.4H5.8c-0.5,0-0.8-0.3-0.8-0.8V18.8c0-0.5,0.3-0.8,0.8-0.8h8.3v10.9
	c0,1.3,1,2.4,2.3,2.4c1.3,0,2.3-1,2.3-2.4V17.1L38.1,5.2v1.4c0,1.3,1,2.4,2.3,2.4s2.3-1,2.3-2.4V3.9c0-1.4-0.8-2.7-1.9-3.4
	c-1.2-0.7-2.6-0.7-3.8,0L15.9,13.5H5.8c-2.9,0-5.3,2.4-5.3,5.5v17.6C0.6,39.5,3,42,5.8,42z"/>
<path d="M40.3,26.2c-1.3,0-2.3,1-2.3,2.4v21.9l-15.3-7.8c-1.1-0.5-2.5-0.1-3,1.1c-0.5,1.2-0.1,2.6,1.1,3.1l16.3,8.3
	c0.5,0.3,1.1,0.5,1.7,0.5c0.7,0,1.4-0.2,2-0.5c1.1-0.7,1.8-2,1.8-3.4V28.5C42.6,27.2,41.6,26.2,40.3,26.2z"/>
<path d="M55.4,3.3c-0.8-0.9-2.3-1-3.2-0.2L0.8,51.9c-0.9,0.9-1,2.4-0.1,3.3C1.1,55.7,1.7,56,2.3,56c0.5,0,1.1-0.2,1.5-0.6L55.2,6.6
	C56.1,5.7,56.2,4.2,55.4,3.3z"/>
</svg>
