<svg xmlns="http://www.w3.org/2000/svg" x="0px" y="0px" viewBox="0 0 51 51">
  <path d="M39.6 38.7c-.5 0-1 .4-1 1v5.6H8.9V5.8h18v10.1c0 .5.4 1 1 1h10.7v1.8c0 .5.4 1 1 1s1-.4 1-1v-3c0-.3-.1-.5-.3-.7l-11-10.8c-.2-.2-.4-.3-.7-.3H7.9c-.5 0-1 .4-1 1v41.3c0 .5.4 1 1 1h31.7c.5 0 1-.4 1-1v-6.5c0-.5-.4-1-1-1zm-2.1-23.8h-8.6V6.4l8.6 8.5z"/>
  <path d="M30.7 21L20 31.8 14.2 26c-.4-.4-1-.4-1.3 0-.4.4-.4 1 0 1.3l6.5 6.5c.2.2.4.3.7.3.3 0 .5-.1.7-.3l11.3-11.4c.4-.4.4-1 0-1.3-.4-.4-1-.4-1.4-.1zm19.4.4l-2.5-2.5c-.6-.6-1.4-.9-2.2-.9s-1.6.4-2.2.9L28.9 33.2l-1.6 1.6c-.2.2-.3.4-.3.7V41c0 .5.4 1 1 1h5.6c.3 0 .5-.1.7-.3l15.9-15.9c.6-.6.9-1.4.9-2.2 0-.9-.4-1.7-1-2.2zM33.2 40.1H29v-4.2l.6-.6 4.2 4.2-.6.6zm1.9-2l-4.2-4.2 10.8-10.8 4.2 4.2-10.8 10.8zm13.7-13.6L47.2 26 43 21.8l1.5-1.5c.3-.3.5-.4.9-.4s.6.1.9.4l2.5 2.5c.3.3.4.5.4.9l-.4.8z"/>
</svg>
