<svg xmlns="http://www.w3.org/2000/svg" viewBox="0 0 1000 1000"><path d="M347.63 12.49c-3.25 1.91-190.45 209.4-209.78 232.75l-5.36 6.32V977l6.51 6.5 6.51 6.51h402.72l6.51-6.51c4.59-4.59 6.51-8.23 6.51-12.44 0-7.46-4.4-16.27-9-18.56-1.91-.96-87.85-2.11-191.02-2.68l-187.58-.96V296.15l95.7-.96c52.64-.57 97.04-1.72 98.77-2.49 1.53-.77 4.4-4.02 6.12-6.89 2.87-5.17 3.25-15.89 3.25-120.59V50.2l224.52.38 224.33.57.96 290.17c.96 280.22 1.15 290.56 4.59 294.38 5.74 6.31 14.93 8.61 22.78 5.17 13.78-5.74 12.82 18.95 12.82-316.2V23.01l-6.51-6.51-6.51-6.51h-251.5c-193.51.2-252.27.78-255.34 2.5zm-10.91 241.94c-.38.38-34.84.38-76.56.19l-75.99-.57 76.18-84.98 75.99-84.98.57 84.79c.2 46.69.2 85.16-.19 85.55z"/><path d="M628.24 682.03c-26.8 5.17-53.21 27.37-66.99 56.27-9.38 19.71-12.25 32.54-12.25 52.64 0 20.86 3.06 33.11 13.21 54.55 16.46 35.22 47.47 67.38 96.66 100.49 25.07 16.84 36.94 22.97 44.21 22.97 12.82 0 65.84-35.98 96.09-65.08 28.9-27.75 46.7-55.32 53.98-84.22 4.98-18.95 3.25-52.06-3.45-69.67-6.51-16.84-20.1-37.13-31.58-47.28-31.2-27.37-78.67-29.86-106.61-5.17l-8.8 7.85-5.17-4.79c-18.39-17.22-42.89-23.73-69.3-18.56zm29.47 40.77c12.82 5.36 21.24 18.76 24.12 38.85 1.34 10.91 2.68 13.97 7.66 18.18 13.21 12.06 31.01 4.02 33.5-14.93 2.11-16.65 3.06-19.33 8.8-28.52 20.48-32.35 67.76-12.25 81.16 34.45 6.51 22.01.96 48.04-15.5 73.12-14.55 22.01-48.23 52.06-81.73 73.31l-13.01 8.04-9.96-6.13c-31.01-19.14-62.97-46.32-79.05-67.18-4.79-6.12-11.68-17.8-15.7-26.03-6.7-14.36-7.08-15.7-7.08-35.03 0-18.57.38-21.05 6.13-32.92 13.38-28.32 39.99-43.83 60.66-35.21z"/></svg>