<svg xmlns="http://www.w3.org/2000/svg" x="0px" y="0px" viewBox="0 0 56 56">
  <path d="M28.8 28.3c3.7-2.2 6.1-6.2 6.1-10.8 0-6.9-5.6-12.6-12.6-12.6S9.8 10.6 9.8 17.5c0 4.6 2.5 8.6 6.1 10.8C7.1 31.1.6 39.6.6 49.7c0 .8.6 1.4 1.4 1.4h40.7c.8 0 1.4-.6 1.4-1.4 0-10.1-6.4-18.6-15.3-21.4zM12.6 17.5c0-5.4 4.4-9.8 9.8-9.8s9.8 4.4 9.8 9.8-4.4 9.8-9.8 9.8-9.8-4.4-9.8-9.8zM3.5 48.3c.7-10.2 8.9-18.2 18.9-18.2 10 0 18.2 8.1 18.9 18.2H3.5zM54 11.4h-4.2V7.2c0-.8-.6-1.4-1.4-1.4S47 6.5 47 7.2v4.2h-4.2c-.8 0-1.4.6-1.4 1.4s.6 1.4 1.4 1.4H47v4.2c0 .8.6 1.4 1.4 1.4s1.4-.6 1.4-1.4v-4.2H54c.8 0 1.4-.6 1.4-1.4s-.6-1.4-1.4-1.4z"/>
</svg>
