<svg xmlns="http://www.w3.org/2000/svg" viewBox="0 0 51 51">
  <path d="M29.2 23.3l.3-.3c1.1-1.1 1.6-2.5 1.6-4 0-3.1-2.5-5.6-5.6-5.6-3.1 0-5.6 2.5-5.6 5.6 0 1.7.8 3.2 2 4.3-4.2 1.5-7.2 5.5-7.2 10.2 0 .5.4 1 1 1h19.8c.5 0 1-.4 1-1 0-4.6-3.1-8.7-7.3-10.2zm-3.6-7.9c2 0 3.6 1.6 3.6 3.6h1-1c0 1-.4 1.9-1.1 2.6-.7.7-1.6 1.1-2.6 1.1-2 0-3.6-1.6-3.6-3.6.1-2 1.7-3.7 3.7-3.7zm-8.8 17.2c.5-4.4 4.3-7.9 8.8-7.9 4.6 0 8.3 3.5 8.8 7.9H16.8z"/>
  <path d="M45.1 32.5V19.6c1.6-.4 2.8-1.9 2.8-3.6 0-2.1-1.6-3.8-3.7-3.8h-.1c-.8 0-1.6.3-2.3.8L29.2 5.9c.1-.4.2-.8.2-1.2 0-2.1-1.7-3.8-3.8-3.8-2.1 0-3.8 1.7-3.8 3.8 0 .4.1.8.2 1.1L9.1 13c-.6-.5-1.4-.8-2.3-.8C4.7 12.2 3 13.9 3 16c0 1.7 1.2 3.2 2.8 3.6v12.9c-1.6.4-2.8 1.9-2.8 3.6 0 2.1 1.7 3.8 3.8 3.8.9 0 1.7-.3 2.3-.8l12.7 7v.4c0 2 1.7 3.7 3.8 3.7h.1c2 0 3.6-1.7 3.7-3.7v-.3l12.4-7.1c.6.5 1.5.8 2.3.8 2.1 0 3.8-1.7 3.8-3.8 0-1-.4-1.9-1.1-2.7-.5-.4-1.1-.7-1.7-.9zm-2.2-17.7c.3-.3.8-.5 1.3-.5 1 0 1.8.8 1.7 1.8 0 1-.8 1.8-1.8 1.7-1 0-1.8-.8-1.8-1.8.1-.5.2-.9.6-1.2zM25.6 2.9c1 0 1.8.8 1.8 1.8s-.8 1.8-1.8 1.8-1.8-.8-1.8-1.8.8-1.8 1.8-1.8zM5.1 16c0-1 .8-1.8 1.8-1.8s1.8.8 1.8 1.8c0 .5-.2.9-.5 1.3-.3.3-.8.5-1.3.5-1.1 0-1.8-.8-1.8-1.8zm3.1 21.2c-.4.5-.9.7-1.4.7-1 0-1.8-.8-1.8-1.8s.8-1.8 1.8-1.8 1.8.8 1.8 1.8c0 .4-.1.8-.4 1.1zm17.4 11c-1 .1-1.8-.8-1.8-1.7v-.1c0-.9.7-1.6 1.6-1.7h.4c.4 0 .8.2 1.1.5.3.3.5.8.5 1.3-.1.9-.8 1.6-1.8 1.7zm3.1-4c-.1-.2-.2-.3-.4-.5-.5-.5-1.1-.8-1.7-1v-5c0-.5-.4-1-1-1-.5 0-1 .4-1 1v5c-.8.2-1.6.8-2.1 1.5l-12.2-6.8c.2-.4.2-.9.2-1.3 0-.6-.2-1.2-.4-1.7l2.3-1.6c.5-.3.6-.9.3-1.4-.3-.5-.9-.6-1.4-.3l-2.6 1.8c-.3-.2-.6-.3-1-.4V19.6c.5-.1 1-.4 1.5-.8l7.3 4.5c.2.1.3.1.5.1.3 0 .7-.2.8-.5.3-.5.1-1.1-.3-1.4l-7.3-4.4c.1-.4.2-.8.2-1.2 0-.5-.1-1-.3-1.4l12.8-7.1c.4.4.9.6 1.5.8v2.4c0 .5.4 1 1 1 .5 0 1-.4 1-1V8.3c.6-.2 1.1-.4 1.5-.8l12.6 7.1c-.2.4-.3.9-.3 1.4 0 .3.1.7.2 1l-7.9 4.6c-.5.3-.6.9-.4 1.4.2.3.5.5.9.5.2 0 .3 0 .5-.1l7.9-4.6c.5.4 1 .8 1.6.9v12.9c-.5.1-.9.3-1.3.6l-2.5-1.5c-.5-.3-1.1-.1-1.4.4-.3.5-.1 1.1.4 1.4l2.3 1.4c-.2.4-.3.9-.3 1.4 0 .5.1.9.2 1.3l-11.7 6.6zm15.4-6.3c-.6 0-1.1-.3-1.4-.7-.2-.3-.4-.7-.4-1.1 0-.5.2-.9.5-1.3.7-.7 1.8-.7 2.5 0 .3.3.5.8.5 1.3.1 1-.7 1.8-1.7 1.8z"/>
</svg>
