<svg xmlns="http://www.w3.org/2000/svg" x="0px" y="0px" viewBox="0 0 412 472">
  <path d="M229.6 216.2c15.9-8.2 26.7-24.7 26.7-43.8 0-27.1-22.1-49.2-49.2-49.2s-49.2 22.1-49.2 49.2c0 19 10.9 35.6 26.7 43.8-44.7 10.2-78.2 50.4-78.2 98.2 0 2.2 1.8 4 4 4h193.4c2.2 0 4-1.8 4-4 0-47.9-33.5-88-78.2-98.2zm-63.7-43.8c0-22.7 18.5-41.2 41.2-41.2 22.7 0 41.2 18.5 41.2 41.2 0 22.7-18.5 41.2-41.2 41.2-22.8 0-41.2-18.5-41.2-41.2zm-51.5 138c2.1-49.3 42.9-88.7 92.6-88.7s90.5 39.4 92.6 88.7H114.4z"/>
  <path d="M384.7 308.5V177.1c0-1.7-1-3.1-2.5-3.7 16.4-.8 29.6-14.4 29.6-31 0-17.1-13.9-31.1-31.1-31.1-8.4 0-16 3.3-21.6 8.8-.3-.3-.6-.6-1-.8L234.8 45.7c2.2-4.2 3.4-9 3.4-14.1 0-17.1-13.9-31.1-31.1-31.1S176 14.5 176 31.6c0 5 1.2 9.6 3.2 13.8L52.8 120.2c-5.6-5.5-13.3-8.9-21.7-8.9-17.1 0-31.1 14-31.1 31.1 0 15.8 11.8 28.8 27.1 30.8v135.3c-15.3 2-27.1 15-27.1 30.8 0 17.1 13.9 31.1 31.1 31.1 8.6 0 16.4-3.5 22.1-9.2l122.6 72.2c.3.2.6.3.9.4-.5 2.1-.7 4.3-.7 6.5 0 17.1 13.9 31.1 31.1 31.1s31.1-13.9 31.1-31.1c0-2-.2-4-.6-5.9l121.1-73.2c5.6 5.7 13.4 9.2 22 9.2 17.1 0 31.1-13.9 31.1-31.1 0-15.7-11.8-28.8-27.1-30.8zm-4-189.2c12.7 0 23.1 10.4 23.1 23.1 0 12.7-10.4 23.1-23.1 23.1-12.7 0-23.1-10.4-23.1-23.1 0-12.7 10.4-23.1 23.1-23.1zM207.1 8.5c12.7 0 23.1 10.4 23.1 23.1 0 12.7-10.4 23.1-23.1 23.1S184 44.3 184 31.6c0-12.7 10.3-23.1 23.1-23.1zM8 142.4c0-12.7 10.4-23.1 23.1-23.1s23.1 10.4 23.1 23.1c0 12.7-10.4 23.1-23.1 23.1S8 155.1 8 142.4zm23.1 220c-12.7 0-23.1-10.3-23.1-23s10.4-23.1 23.1-23.1 23.1 10.4 23.1 23.1c0 5.3-1.8 10.2-4.8 14.1-4.3 5.4-10.9 8.9-18.3 8.9zm176 101c-12.7 0-23.1-10.4-23.1-23.1 0-12.7 10.3-23.1 23.1-23.1 12.7 0 23.1 10.4 23.1 23.1 0 12.7-10.4 23.1-23.1 23.1zm27.9-36.7c-4.5-9.2-13.4-15.8-23.9-17.2v-54.6c0-2.2-1.8-4-4-4s-4 1.8-4 4v54.6c-10.4 1.3-19.1 7.8-23.7 16.7L58.1 354.8c2.6-4.6 4.1-9.8 4.1-15.5 0-6.8-2.2-13.1-5.9-18.2l19.2-10.9c1.9-1.1 2.6-3.5 1.5-5.5-1.1-1.9-3.5-2.6-5.5-1.5L50.6 315c-4.4-3.5-9.7-5.9-15.5-6.6V173.2c7.6-1 14.4-4.7 19.2-10.2l67.5 45.9c.7.5 1.5.7 2.2.7 1.3 0 2.5-.6 3.3-1.8 1.2-1.8.8-4.3-1.1-5.6l-67.5-45.9c2.1-4.2 3.4-9 3.4-14 0-5.8-1.6-11.2-4.4-15.9l125.4-74.2c.1-.1.3-.2.4-.3 4.9 5.6 11.7 9.4 19.4 10.4v28.5c0 2.2 1.8 4 4 4s4-1.8 4-4V62.4c7.6-1 14.3-4.7 19.2-10.1l123.8 73.8s.1 0 .1.1a30.9 30.9 0 0 0-4.6 16.2c0 4.4.9 8.7 2.6 12.5l-73.4 47.3c-1.9 1.2-2.4 3.7-1.2 5.5.8 1.2 2.1 1.8 3.4 1.8.7 0 1.5-.2 2.2-.6l73.2-47.2c5.4 6.8 13.6 11.3 22.8 11.7-1.5.6-2.5 2-2.5 3.7v131.4c-6.9.9-13 4-17.7 8.6-.1-.1-.2-.1-.3-.2l-20.4-8.8c-2-.9-4.4.1-5.3 2.1-.9 2 .1 4.4 2.1 5.3l18.8 8.1c-2.7 4.6-4.3 10-4.3 15.7 0 5.6 1.5 10.9 4.2 15.5L235 426.7zm145.7-64.3c-12.7 0-23.1-10.4-23.1-23.1 0-12.7 10.4-23.1 23.1-23.1 12.7 0 23.1 10.4 23.1 23.1 0 12.8-10.4 23.1-23.1 23.1z"/>
</svg>
