<svg xmlns="http://www.w3.org/2000/svg" x="0px" y="0px" viewBox="0 0 56 56">
  <path d="M42.5 54.8c-7.7 0-17-4.4-25-12.4l-4.2-3.9C2.1 27.5-2.2 13.1 3.4 5c.6-.8.7-.9 1.5-1.7 1.1-1.2 2.8-2 4.7-2.1 2-.1 4 .7 5.3 2.1l5.6 4.6c1.5 1.3 2.4 3.1 2.5 5 .1 1.7-.6 3.4-1.8 4.6l-.7.7c-1.5 1.6-.3 6.2 3.5 9.8l3.8 4c3.5 3.8 8.2 5 9.9 3.5l.6-.6c2.8-2.5 7-2.2 9.7.5l5 5.7c1.2 1.1 2 2.8 2 4.6.1 2-.7 3.9-2.1 5.3l-.3.2c-.3.2-.4.3-.6.4-.4.3-.6.4-1 .6-2.3 1.8-5.3 2.6-8.5 2.6zM9.8 5.2h-.1c-.8 0-1.5.3-1.9.8-.7.7-.7.7-1.1 1.2-4.5 6.5-.3 18.9 9.4 28.4l4.2 4C30 49.3 42.6 53.4 49 49l.2-.1c.2-.1.3-.2.5-.4.2-.1.3-.2.5-.4.5-.6.8-1.4.8-2.3 0-.8-.3-1.5-.8-1.9l-.2-.2-4.9-5.7c-1.1-1-2.9-1.2-4.1-.2l-.6.6c-3.8 3.1-10.6 1.4-15.5-3.7l-3.7-4c-5.1-4.8-6.8-11.5-3.8-15.2l.9-.9c.5-.5.7-1 .7-1.7 0-.8-.4-1.6-1.1-2.1l-5.6-4.7c-.8-.6-1.7-.9-2.5-.9z"/>
</svg>
