<svg xmlns="http://www.w3.org/2000/svg" viewBox="0 0 220.6 220.9">
  <path d="M100.1 82.1c0 31.1-9.7 57.2-24.6 81.5-6 9.8-12.9 19-19.9 28.1-3 3.9-7.1 7.1-11.2 10-5.5 3.9-11.8 3.7-15.6.2-3.9-3.5-4.8-10.2-1.4-16 2.8-5 6.4-9.6 9.6-14.3 11.2-16.4 20.4-33.7 25.1-53.2.4-1.8.9-3.6 1.1-5.5.9-6.3-2.2-10.8-8.5-11.8-2.8-.5-5.7-.5-8.6-.4-20 1-32.6-12.3-36.8-26.2-5.4-18.1 1.6-35.6 17.4-45.1C49.6 15.8 79.3 24.2 92.1 48c6.1 11.3 8.5 23.5 8 34.1zm63.3-58.9c20.4 0 37.6 12.6 44.9 32.5 6.8 18.6 5.6 37.4 1.4 56.2-5.5 25-16.9 47.3-31.9 67.9-4 5.4-8.2 10.8-12.8 15.7-2.9 3.1-6.6 5.6-10.3 7.6-5.2 2.7-11 1.6-14-1.7s-3.8-10-1-14.7c2.6-4.5 5.7-8.6 8.8-12.8 10.1-13.6 18.5-28.2 24.3-44.1 1.8-4.8 3.1-9.9 3.9-15 1.3-8.7-2.9-13.4-11.7-13.8-4.7-.2-9.5-.2-14.2-.8-15.9-2.1-29.4-17.2-29.9-33.3-1-25.6 16.7-43.7 42.5-43.7z"/>
</svg>
