<svg xmlns="http://www.w3.org/2000/svg" viewBox="0 0 23 23">
  <path d="M21 19.8c.6 0 1.1-.5 1.1-1.1v-.9c0-.9-.4-1.8-1-2.4L19.8 14c-.1-.1-.2-.2-.3-.2v-1.3c0-.3-.2-.5-.5-.5s-.5.2-.5.5v1.3c-.1.1-.2.1-.3.2l-1.4 1.4c-.2.2-.3.4-.5.6l-.9-1.5v-2.6c0-.3-.2-.5-.5-.5h-.5l-.7-2.7c.6-.1 1-.5 1-1.1v-.8c0-.9-.4-1.8-1-2.4L12.3 3c-.1-.1-.2-.2-.3-.2V1.4c0-.1-.1-.3-.1-.3-.1-.1-.2-.1-.3-.1-.3 0-.5.2-.5.5v1.3c-.1.1-.2.1-.3.2L9.2 4.4c-.6.6-1 1.5-1 2.4v.9c0 .6.5 1.1 1.1 1.1h.1l-.7 2.7h-.6c-.3 0-.5.2-.5.5v2.5L6.7 16c-.1-.2-.3-.4-.4-.5L4.9 14c-.1-.1-.2-.2-.3-.2v-1.3c0-.3-.2-.5-.5-.5s-.5.2-.5.5v1.3c-.1.1-.2.1-.3.2l-1.4 1.4c-.6.6-1 1.5-1 2.4v.9c0 .6.5 1.1 1.1 1.1h.4v1.3h-1c-.3 0-.5.2-.5.5s.2.5.5.5h6.5c.1 0 .2 0 .3-.1l3.2-2.4 3.9 2.4c.1 0 .2.1.3.1h6.1c.3 0 .5-.2.5-.5s-.2-.5-.5-.5h-.8v-1.3h.1zm-1.1 0v1.3h-1.7v-1.3h1.7zM5 19.8v1.3H3.3v-1.3H5zm7.7-11l.7 2.7H9.8l.7-2.7h2.2zm1-2v.9c0 .1-.1.2-.2.2H9.3c-.1 0-.2-.1-.2-.2v-.9c0-.6.3-1.3.7-1.7l1.4-1.4.1-.1s.1 0 .1.1L13 5.1c.5.4.7 1.1.7 1.7zm-7.4 11v.9c0 .1-.1.2-.2.2H1.9c-.1 0-.2-.1-.2-.2v-.9c0-.6.3-1.3.7-1.7l1.4-1.4.1-.1s.1 0 .1.1l1.4 1.4c.7.4.9 1 .9 1.7zm10.4.8v-.9c0-.6.3-1.3.7-1.7l1.4-1.4.1-.1s.1 0 .1.1l1.4 1.4c.5.5.7 1.1.7 1.7v.9c0 .1-.1.2-.2.2h-4.2c.1 0 0-.1 0-.2zM6 19.8h.2c.6 0 1.1-.5 1.1-1.1v-.9c0-.3 0-.5-.1-.8l1.3-2.2c0-.1.1-.2.1-.3v-2.1h5.8v2.2c0 .1 0 .2.1.2l1.3 2.2c0 .2-.1.5-.1.7v.9c0 .6.5 1.1 1.1 1.1h.4V21h-1.6l-4-2.5c-.2-.1-.4-.1-.6 0L7.7 21H6v-1.2z"/>
</svg>
