<svg xmlns="http://www.w3.org/2000/svg" x="0px" y="0px" viewBox="0 0 56 56">
  <path d="M40.7.5a3.7 3.7 0 0 0-3.8 0l-21 13H5.8C2.9 13.5.5 15.9.5 19v17.6c0 3.1 2.3 5.5 5.3 5.5h10.1l21.1 13c1.1.7 2.6.7 3.8 0 1.1-.6 1.9-2 1.9-3.4V3.9c-.1-1.4-.8-2.7-2-3.4zM14.1 26.7v10.9H5.8c-.5 0-.8-.3-.8-.8v-18c0-.5.3-.8.8-.8h8.3v8.7zm24-20.6v44.4l-19.5-12V17.1L38.1 5.2v.9zm9.9 6.2c-.1-.1-.2 0-.2 0-.2.2-2.6 2.8-2.6 2.8s-.1.2 0 .3c3.6 3 6 7.6 6 12.7 0 5-2.3 9.5-5.8 12.6-.3.2-.1.4-.1.4s2.5 2.7 2.6 2.7c.1 0 .2.1.3-.1 4.5-3.7 7.5-9.3 7.5-15.6-.1-6.5-3.1-12.1-7.7-15.8z"/>
</svg>
